<?xml version="1.0" encoding="UTF-8"?>
<svg width="84px" height="85px" viewBox="0 0 84 85" version="1.1" xmlns="http://www.w3.org/2000/svg" xmlns:xlink="http://www.w3.org/1999/xlink">
    <!-- Generator: Sketch 47 (45396) - http://www.bohemiancoding.com/sketch -->
    <title>FINAL DHFLGI LOGO - 12 07 17</title>
    <desc>Created with Sketch.</desc>
    <defs></defs>
    <g id="Page-1" stroke="none" stroke-width="1" fill="none" fill-rule="evenodd">
        <g id="Mobile" transform="translate(-85.000000, -446.000000)">
            <g id="Group" transform="translate(71.000000, 442.000000)">
                <g id="FINAL-DHFLGI-LOGO---12-07-17" transform="translate(11.000000, 2.000000)">
                    <path d="M45,2.75510204 L45,2.75510204 C67.7297375,2.75510204 86.3265306,21.1344787 86.3265306,43.5918614 L86.3265306,49.5918367 L3.67346939,49.5918367 L3.67346939,43.5918614 C3.67346939,21.1319345 22.2706267,2.75510204 45,2.75510204" id="Fill-4" fill="#D8232A"></path>
                    <polyline id="Fill-5" fill="#FFFFFE" points="28.8736445 49.5918367 28.7537617 31.9082036 22.9591837 31.9596643 41.9730311 14.6938776 60.6122449 31.6755433 54.6473456 31.6657585 54.6473456 49.5918367 28.8736445 49.5918367"></polyline>
                    <path d="M32.1428571,18.7819423 C28.9983064,15.5559579 24.9334337,18.8123284 25.8442715,21.9185774 C26.8527618,25.3583493 29.9941511,27.0646701 32.1428571,29.3877551 C34.2915632,27.0646701 37.4329525,25.3583493 38.4414428,21.9185774 C39.3522806,18.8123284 35.2874079,15.5559579 32.1428571,18.7819423" id="Fill-6" fill="#FFFFFE"></path>
                    <path d="M29.7093996,17.4491428 C30.6577445,17.4583514 31.6652933,17.8274301 32.6020862,18.6970857 C33.5388791,17.8274301 34.5464279,17.4583514 35.4947728,17.4491428 C36.2449291,17.4421443 36.9546536,17.6605712 37.5604102,18.0344383 C38.1661669,18.4079372 38.6708438,18.9383498 39.011266,19.5549544 L39.010544,19.5553227 C39.472623,20.3918275 39.6350726,21.3867194 39.3444683,22.3687194 C38.5870919,24.9272233 36.7232531,26.5501385 34.9012901,28.1365877 C34.1673787,28.7752928 33.4403263,29.4081045 32.8053287,30.0884323 L32.6020862,30.3061224 L32.3988436,30.0884323 C31.7638461,29.4081045 31.0371547,28.7752928 30.3032433,28.1365877 C28.4812803,26.5501385 26.6170804,24.9275917 25.8600651,22.3687194 C25.5690998,21.3856144 25.7308274,20.3907225 26.1929064,19.5549544 C26.5333286,18.9383498 27.0376445,18.4083055 27.6434012,18.0344383 C28.2495188,17.6605712 28.9592433,17.4421443 29.7093996,17.4491428 Z M32.4046196,19.2949049 C31.5266696,18.4027804 30.5822957,18.0292816 29.7047066,18.0208097 C29.064294,18.0149162 28.4556494,18.2027707 27.9332835,18.52507 C27.4105567,18.8477376 26.9755527,19.3044818 26.6824213,19.8352627 C26.2918202,20.5413744 26.1542795,21.3789843 26.3979539,22.2029654 C27.1084004,24.602714 28.9083424,26.1696411 30.6678525,27.7015757 C31.336423,28.2839245 31.9995785,28.8611165 32.6020862,29.4810362 C33.2049549,28.8611165 33.8677494,28.2839245 34.5363199,27.7015757 C36.296191,26.1696411 38.096133,24.602714 38.8065795,22.2029654 C39.0502539,21.3782476 38.9127132,20.5406377 38.5228341,19.8352627 L38.5217511,19.8352627 C38.2286197,19.3044818 37.7936157,18.8477376 37.2708889,18.52507 C36.748162,18.2027707 36.1395174,18.0149162 35.4991048,18.0208097 C34.6218767,18.0292816 33.6775028,18.4027804 32.7999138,19.2949049 L32.6024472,19.4960196 L32.4046196,19.2949049 L32.4046196,19.2949049 Z" id="Fill-7" fill="#D8232A"></path>
                    <polyline id="Fill-8" fill="#D8232A" points="28.4693878 24.4469222 30.2863499 24.4469222 30.7324178 23.1799356 31.3602171 24.1981239 32.2013838 21.122449 32.921279 24.5566196 33.632035 22.6299406 34.190235 24.4518228 35.8163265 24.4499379 35.8163265 24.7677212 33.9969038 24.7677212 33.6144594 23.5455938 32.8344557 25.7142857 32.1662326 22.3924513 31.4558282 24.874026 30.7953384 23.8588535 30.4888205 24.7658364 28.4693878 24.7658364 28.4693878 24.4469222"></polyline>
                    <path d="M55.5382746,18.3197324 L51.4285714,16.0897611 L52.2562885,15.2114604 C54.0015386,15.6320752 55.9943995,15.8858699 57.7389452,16.3061282 C58.5096026,15.5483087 59.2795556,14.7901327 60.0498608,14.0323131 C61.0617889,13.2723549 61.9581888,14.3627453 61.3122173,15.1800925 C60.5169045,15.9849639 59.7208873,16.7898352 58.9259267,17.5947066 L59.8152822,23.0922846 L59.0428637,23.877551 L56.8379664,19.6011818 L55.3568813,21.0077462 L55.4970648,22.4713431 L54.85532,23.0388166 L53.8955204,21.1325048 L52.1372381,20.1397826 L52.7522143,19.5049394 L54.2794402,19.7608728 L55.5382746,18.3197324" id="Fill-9" fill="#FFFFFE"></path>
                    <path d="M55.1020408,46.8367347 C56.1164785,46.8367347 56.9387755,47.6588979 56.9387755,48.6728586 C56.9387755,49.6880408 56.1164785,50.5102041 55.1020408,50.5102041 C54.0876031,50.5102041 53.2653061,49.6880408 53.2653061,48.6728586 C53.2653061,47.6588979 54.0876031,46.8367347 55.1020408,46.8367347" id="Fill-10" fill="#FFFFFE"></path>
                    <path d="M77.1428571,85.7763278 C77.1428571,85.8498572 77.1300824,85.9157801 77.1048979,85.9744587 C77.0786184,86.0316885 77.0443091,86.0791386 76.999415,86.1186199 C76.9567108,86.1562901 76.9059769,86.1845428 76.846848,86.2022913 C76.7855293,86.220402 76.7264004,86.2283707 76.6658116,86.2283707 L76.1241624,86.2283707 C76.0106497,86.2283707 75.9139266,86.217142 75.8310733,86.1957714 C75.7504099,86.1725897 75.6748564,86.1312973 75.6058727,86.0726187 C75.5350641,86.0139401 75.4697304,85.9331664 75.4054917,85.8321087 C75.341253,85.7317755 75.2686194,85.6006541 75.1879561,85.4401933 L73.6396569,82.5359627 C73.5491387,82.3621 73.4586205,82.1751977 73.3644523,81.97598 C73.2710142,81.7756758 73.1885258,81.5811669 73.1144323,81.3920913 L73.1042125,81.3920913 C73.1177173,81.623546 73.1279371,81.8528273 73.1341419,82.0821087 C73.1407118,82.309579 73.1443617,82.5475535 73.1443617,82.7902368 L73.1443617,86.0414683 C73.1443617,86.0726187 73.1356019,86.1023202 73.1177173,86.1283996 C73.1001976,86.1533924 73.0688082,86.1744008 73.0257391,86.1921493 C72.9830349,86.2106222 72.9239061,86.2232997 72.8498126,86.2330794 C72.7757191,86.2432214 72.680091,86.2482924 72.5647533,86.2482924 C72.4512405,86.2482924 72.3578024,86.2432214 72.2837089,86.2330794 C72.2096153,86.2232997 72.1519465,86.2106222 72.1107023,86.1921493 C72.0676332,86.1758497 72.0384337,86.1533924 72.023469,86.1283996 C72.0070444,86.1023202 71.9986495,86.0726187 71.9986495,86.0414683 L71.9986495,80.458304 C71.9986495,80.307623 72.0435436,80.1953368 72.1318719,80.1196341 C72.2194701,80.0446558 72.327873,80.0062611 72.4578104,80.0062611 L73.1377919,80.0062611 C73.2596994,80.0062611 73.3629924,80.0160409 73.4473057,80.0374115 C73.530524,80.0587821 73.6046176,80.0931924 73.6710462,80.1406425 C73.7367449,80.1880925 73.7995237,80.2554643 73.8571925,80.3409467 C73.9141314,80.4242559 73.9732602,80.5303846 74.034579,80.6549861 L75.2470849,82.9275158 C75.3178935,83.0651571 75.3868771,83.2009873 75.4562257,83.3335576 C75.5252093,83.46649 75.593098,83.5994225 75.6558767,83.7316306 C75.7197505,83.8645631 75.7817992,83.9956845 75.843118,84.1228215 C75.9051668,84.2524941 75.9642956,84.3803556 76.0219645,84.5085793 L76.0270744,84.5085793 C76.0172195,84.2836445 76.0091897,84.0492921 76.0044448,83.8073333 C75.9993349,83.5632011 75.9978749,83.3306599 75.9978749,83.108985 L75.9978749,80.1931635 C75.9978749,80.1620131 76.0069997,80.133036 76.0270744,80.1065944 C76.045689,80.0819638 76.0785383,80.0587821 76.1227024,80.0395848 C76.1690565,80.019663 76.2281853,80.0062611 76.3022789,79.9986546 C76.3763724,79.9899615 76.4720005,79.9870638 76.5866082,79.9870638 C76.697201,79.9870638 76.7891792,79.9899615 76.8632727,79.9986546 C76.9373662,80.0062611 76.9932101,80.019663 77.0344543,80.0395848 C77.0735085,80.0587821 77.1034379,80.0819638 77.1184026,80.1065944 C77.1348273,80.133036 77.1428571,80.1605642 77.1428571,80.1931635 L77.1428571,85.7763278 Z M68.5826825,81.1878027 L68.5775726,81.1878027 L67.7085249,83.8301528 L69.4593951,83.8301528 L68.5826825,81.1878027 Z M71.4453205,85.7487995 C71.4832798,85.8632591 71.5080993,85.954537 71.5183191,86.0219088 C71.5281739,86.0889183 71.5146692,86.1399905 71.4803598,86.1744008 C71.4438606,86.207 71.3814468,86.2283707 71.2909286,86.2367016 C71.2022354,86.2446703 71.0770429,86.2482924 70.920826,86.2482924 C70.7562143,86.2482924 70.6277368,86.2468436 70.5372186,86.2417726 C70.4452404,86.2367016 70.3762568,86.2269218 70.3269828,86.212071 C70.2791687,86.1972203 70.2463194,86.1772985 70.2266098,86.1512191 C70.2065352,86.127313 70.1901105,86.0925405 70.1787957,86.0516103 L69.7689089,84.8034214 L67.4154357,84.8034214 L67.0219736,86.0168378 C67.0091988,86.0628389 66.9927742,86.100147 66.9716046,86.1298485 C66.95153,86.1609989 66.9172207,86.1845428 66.8708666,86.2022913 C66.8245125,86.220402 66.7591788,86.2319928 66.6734055,86.2381504 C66.5879972,86.2446703 66.4759444,86.2482924 66.3376122,86.2482924 C66.1894251,86.2482924 66.0748174,86.2432214 65.9905041,86.2330794 C65.9065558,86.2232997 65.8492519,86.2008424 65.8178625,86.164621 C65.7853782,86.127313 65.7729684,86.0740676 65.7831882,86.0066958 C65.793043,85.9404106 65.8178625,85.851306 65.8558218,85.7386575 L67.7778735,80.2264871 C67.7953932,80.1717929 67.8191177,80.127965 67.8453972,80.0946413 C67.8694867,80.0605932 67.9110959,80.0359627 67.9665748,80.0182142 C68.0242436,80.0001035 68.1019871,79.9885126 68.2027251,79.9838039 C68.3009081,79.9787329 68.4326705,79.977284 68.5976472,79.977284 C68.7863485,79.977284 68.9374555,79.9787329 69.0495082,79.9838039 C69.163386,79.9885126 69.2506192,80.0001035 69.313398,80.0182142 C69.3750817,80.0359627 69.4203408,80.0620421 69.4480803,80.0968146 C69.4743598,80.133036 69.4984493,80.180486 69.5170639,80.2406135 L71.4453205,85.7487995 Z M64.0892569,81.8379766 C64.0892569,81.6333257 64.0436329,81.4594631 63.9494647,81.3200108 C63.8560266,81.1791096 63.7027296,81.0795008 63.4903039,81.022271 C63.4264301,81.0059714 63.3541616,80.9947427 63.2716732,80.9846007 C63.1895499,80.974821 63.0764021,80.96975 62.93077,80.96975 L62.3621113,80.96975 L62.3621113,82.7293849 L63.0085135,82.7293849 C63.1895499,82.7293849 63.3457667,82.7080142 63.4804491,82.6634619 C63.6173213,82.6210829 63.7293741,82.560231 63.8198923,82.4816306 C63.9104105,82.404479 63.9779342,82.309579 64.0220983,82.2016393 C64.0666274,82.0933373 64.0892569,81.9723579 64.0892569,81.8379766 Z M65.7280743,86.0563191 C65.7280743,86.0903672 65.7218695,86.1200687 65.7090947,86.1446993 C65.695225,86.169692 65.6660256,86.1892516 65.6185765,86.2055512 C65.5693025,86.220402 65.4999539,86.2319928 65.4057857,86.2381504 C65.3127126,86.2446703 65.1856951,86.2482924 65.0258283,86.2482924 C64.891146,86.2482924 64.7842031,86.2446703 64.7031747,86.2381504 C64.6225113,86.2319928 64.5582726,86.220402 64.5126485,86.2022913 C64.4662944,86.1845428 64.4334451,86.1631722 64.4137355,86.1349195 C64.3958508,86.1073912 64.3794262,86.0740676 64.3659214,86.0367595 L63.8034676,84.6458583 C63.735579,84.4886575 63.6702453,84.3477563 63.6060066,84.2260525 C63.5417678,84.1039864 63.4691343,84.0018421 63.3899309,83.9199818 C63.3114574,83.8384837 63.2187493,83.7776317 63.1154563,83.7352527 C63.0136234,83.6943226 62.8931758,83.6729519 62.7584934,83.6729519 L62.3621113,83.6729519 L62.3621113,86.0465393 C62.3621113,86.0776897 62.3518915,86.1073912 62.3307219,86.1312973 C62.3091874,86.1581012 62.2741481,86.1794718 62.226699,86.1957714 C62.178885,86.2106222 62.1146462,86.2232997 62.0339829,86.2330794 C61.9547794,86.2432214 61.8514865,86.2482924 61.7281189,86.2482924 C61.6062114,86.2482924 61.5043784,86.2432214 61.422255,86.2330794 C61.3397667,86.2232997 61.2755279,86.2106222 61.2277139,86.1957714 C61.1798999,86.1794718 61.1459555,86.1581012 61.1273409,86.1334706 C61.1079963,86.1073912 61.0981415,86.0776897 61.0981415,86.0465393 L61.0981415,80.4046964 C61.0981415,80.2637952 61.1335458,80.1620131 61.2065443,80.0997123 C61.2791779,80.0374115 61.3675061,80.0062611 61.472989,80.0062611 L63.0891769,80.0062611 C63.2523286,80.0062611 63.3884709,80.0098833 63.4939538,80.0160409 C63.5987067,80.0232852 63.6965248,80.0308917 63.783393,80.0395848 C64.033778,80.075444 64.2589786,80.1359337 64.4600896,80.222865 C64.6604706,80.307623 64.8320172,80.420996 64.9718094,80.5600861 C65.1116016,80.6995384 65.2185445,80.8628969 65.292638,81.0534214 C65.3667315,81.2435836 65.4025008,81.4616364 65.4025008,81.708304 C65.4025008,81.9151281 65.3765863,82.1052904 65.3240274,82.2751687 C65.2689135,82.4475825 65.192265,82.5997123 65.0886071,82.7340936 C64.9860441,82.868475 64.8597566,82.9847456 64.7079196,83.0829056 C64.5568126,83.1828766 64.3845361,83.2611148 64.1910899,83.3234156 C64.285258,83.3679679 64.3721263,83.4219377 64.4549797,83.4864118 C64.537103,83.5497992 64.6148465,83.6283996 64.6867501,83.720402 C64.7593836,83.8124043 64.8283672,83.9149108 64.892606,84.0329925 C64.9568447,84.1499876 65.0196234,84.2821956 65.0802122,84.4299789 L65.6083567,85.6567972 C65.6561708,85.7777766 65.6890201,85.8661568 65.7039848,85.9233866 C65.7204095,85.9791675 65.7280743,86.0237198 65.7280743,86.0563191 Z M60.0579122,83.9036822 C60.0579122,84.2836445 60.0017033,84.6244877 59.8881906,84.9244008 C59.7765028,85.2257627 59.6115261,85.4796746 59.3928954,85.6879476 C59.1738998,85.8958583 58.9038052,86.0548702 58.5829765,86.1631722 C58.260688,86.272923 57.8924103,86.3265306 57.4737636,86.3265306 C57.0824914,86.3265306 56.7302734,86.2772695 56.4192996,86.1809206 C56.1065008,86.0823985 55.8433411,85.9353397 55.6272654,85.7364842 C55.4122846,85.5387155 55.2473079,85.2909612 55.1341602,84.9946703 C55.0206474,84.6980171 54.9629786,84.3528273 54.9629786,83.955841 L54.9629786,80.1783127 C54.9629786,80.1471623 54.9731984,80.1181852 54.992178,80.0917436 C55.0107926,80.0671131 55.0451019,80.0457424 55.094376,80.029805 C55.144015,80.0135054 55.2097137,80.0011901 55.2903771,79.9914104 C55.3692155,79.982355 55.4728734,79.977284 55.5980659,79.977284 C55.7181486,79.977284 55.8199815,79.982355 55.899185,79.9914104 C55.9794834,80.0011901 56.0437221,80.0135054 56.0915361,80.029805 C56.1393502,80.0457424 56.1743895,80.0671131 56.1955591,80.0917436 C56.2170936,80.1181852 56.2269484,80.1471623 56.2269484,80.1783127 L56.2269484,83.8479012 C56.2269484,84.0952933 56.2576078,84.308275 56.3189266,84.4901064 C56.3795154,84.6704889 56.4671136,84.8211698 56.5820864,84.9392516 C56.6959641,85.0566089 56.8321064,85.1471623 56.9919732,85.2062032 C57.151475,85.2648818 57.3292265,85.2945834 57.5252276,85.2945834 C57.7241486,85.2945834 57.9037251,85.263433 58.0599419,85.2033055 C58.2179838,85.1424535 58.3512061,85.0540734 58.461069,84.9370783 C58.5702018,84.819721 58.6556101,84.6755599 58.7147389,84.5049572 C58.7742327,84.3329056 58.8034321,84.1376723 58.8034321,83.9199818 L58.8034321,80.1783127 C58.8034321,80.1471623 58.813287,80.1181852 58.8333616,80.0917436 C58.8516112,80.0671131 58.8859205,80.0457424 58.9337346,80.029805 C58.9815486,80.0135054 59.0472473,80.0011901 59.1297357,79.9914104 C59.211859,79.982355 59.313692,79.977284 59.4355996,79.977284 C59.5575071,79.977284 59.6578801,79.982355 59.7363536,79.9914104 C59.815557,80.0011901 59.8797957,80.0135054 59.9276098,80.029805 C59.9754238,80.0457424 60.0100981,80.0671131 60.0279828,80.0917436 C60.0480574,80.1181852 60.0579122,80.1471623 60.0579122,80.1783127 L60.0579122,83.9036822 Z M54.3293512,84.3542762 C54.3293512,84.6817175 54.2680324,84.9667798 54.1461248,85.2145341 C54.0227573,85.4601151 53.8581456,85.6644037 53.6493697,85.8299354 C53.4387689,85.9940183 53.1949538,86.1186199 52.9157343,86.2022913 C52.6354199,86.2856004 52.3361259,86.3265306 52.0167572,86.3265306 C51.8014115,86.3265306 51.6024905,86.3087821 51.4163442,86.272923 C51.2320228,86.2367016 51.0692361,86.1935981 50.9276189,86.1432504 C50.7863667,86.0939893 50.6673791,86.0414683 50.572481,85.9856874 C50.4768529,85.9306309 50.4093292,85.8810076 50.3662601,85.8400774 C50.3250159,85.7973362 50.2958165,85.7364842 50.2772018,85.6582461 C50.2593172,85.5796457 50.2516524,85.468446 50.2516524,85.3206627 C50.2516524,85.2210539 50.2545723,85.1388314 50.2607772,85.0714596 C50.268077,85.0044501 50.2772018,84.9504802 50.2921665,84.9081012 C50.3071312,84.867171 50.3272058,84.8374695 50.3498354,84.819721 C50.3750199,84.8012481 50.4027593,84.7936416 50.4356087,84.7936416 C50.4797728,84.7936416 50.5440115,84.819721 50.6264999,84.8736909 C50.7086233,84.9258497 50.8141062,84.9852527 50.9425836,85.0490024 C51.0706961,85.112752 51.225453,85.1721551 51.4050294,85.2243139 C51.5824159,85.2782837 51.7900967,85.3043631 52.0251521,85.3043631 C52.179909,85.3043631 52.3182412,85.2866146 52.4401488,85.2507555 C52.5635163,85.2123608 52.6668093,85.1620131 52.7525826,85.0950035 C52.8379909,85.0276317 52.9022296,84.9457714 52.9485837,84.8472492 C52.9927478,84.7490893 53.0161073,84.6393385 53.0161073,84.5183591 C53.0161073,84.3767335 52.9777831,84.2561162 52.9007696,84.1561452 C52.8237562,84.0543631 52.7230182,83.9659829 52.5978257,83.8873825 C52.4744581,83.8087821 52.3332059,83.7352527 52.1747991,83.6660699 C52.0189472,83.5972492 51.8554304,83.5251687 51.6882638,83.4480171 C51.5200021,83.37159 51.3572153,83.2846587 51.2006335,83.1861365 C51.0429566,83.0894254 50.9009744,82.9731548 50.7776069,82.8373246 C50.6531444,82.7011322 50.5524064,82.5410337 50.4753929,82.3544935 C50.3976494,82.16904 50.3600552,81.9462785 50.3600552,81.6872956 C50.3600552,81.3906425 50.4155341,81.1283996 50.5261269,80.9027404 C50.6367197,80.67853 50.7863667,80.4916277 50.973608,80.3423956 C51.1626742,80.1931635 51.3838598,80.0819638 51.6389897,80.0084344 C51.8933897,79.9341806 52.1649443,79.8979592 52.4514636,79.8979592 C52.5978257,79.8979592 52.7460127,79.9099122 52.8941998,79.9327317 C53.0423868,79.9541023 53.1799891,79.9848905 53.3084665,80.0232852 C53.4373089,80.0620421 53.5508217,80.1047833 53.6511947,80.1518711 C53.7497427,80.2014944 53.8154414,80.2406135 53.8486558,80.2735749 C53.8793152,80.3047253 53.9008497,80.3322536 53.9128945,80.3536242 C53.9242093,80.3771681 53.9344291,80.4061452 53.9420939,80.4441777 C53.9508537,80.4803991 53.9555986,80.5256758 53.9585186,80.5829056 C53.9621685,80.6386865 53.9636285,80.7075071 53.9636285,80.7915408 C53.9636285,80.8828186 53.9621685,80.9614191 53.9570586,81.0258931 C53.9523137,81.0892805 53.9435539,81.1418015 53.9322391,81.1841806 C53.9209243,81.2251107 53.9044997,81.2562611 53.8844251,81.274734 C53.8628905,81.2939314 53.835151,81.3037111 53.7990168,81.3037111 C53.7647074,81.3037111 53.7084986,81.2812539 53.6314851,81.2367016 C53.5537416,81.1925115 53.4581135,81.1432504 53.3467908,81.0892805 C53.232913,81.0371217 53.1029756,80.9896717 52.9547886,80.9465683 C52.8066015,80.9027404 52.6456397,80.8813698 52.4678882,80.8813698 C52.329556,80.8813698 52.2091084,80.8976694 52.1058154,80.9324419 C52.0039825,80.9650412 51.9182092,81.012129 51.8492256,81.0711698 C51.7798769,81.1305729 51.727318,81.2004802 51.6944686,81.2837894 C51.6594293,81.3681852 51.6437346,81.4565654 51.6437346,81.5478433 C51.6437346,81.6858468 51.6809639,81.8053773 51.7572474,81.9049861 C51.8328009,82.0071304 51.9346339,82.0969595 52.0616513,82.1751977 C52.1879388,82.2523492 52.3332059,82.3258786 52.4941677,82.3954237 C52.6540345,82.4638821 52.8186463,82.5374115 52.9861779,82.6131142 C53.1537096,82.6895413 53.3183213,82.7768349 53.4781881,82.8749948 C53.6391499,82.9731548 53.7825921,83.0894254 53.9092446,83.22598 C54.0348021,83.3618102 54.136635,83.5200977 54.2136485,83.7055512 C54.291392,83.8888314 54.3293512,84.1050731 54.3293512,84.3542762 Z M49.5880956,85.7763278 C49.5880956,85.8498572 49.5742258,85.9157801 49.5501363,85.9744587 C49.5238568,86.0316885 49.4888175,86.0791386 49.4446534,86.1186199 C49.4019493,86.1562901 49.3504853,86.1845428 49.2913565,86.2022913 C49.2307677,86.220402 49.1716388,86.2283707 49.1103201,86.2283707 L48.5694008,86.2283707 C48.4558881,86.2283707 48.3588,86.217142 48.2763117,86.1957714 C48.1956483,86.1725897 48.1200948,86.1312973 48.0511111,86.0726187 C47.9795726,86.0139401 47.9142389,85.9331664 47.8500002,85.8321087 C47.7857614,85.7317755 47.7131279,85.6006541 47.6331945,85.4401933 L46.0841653,82.5359627 C45.9936471,82.3621 45.9031289,82.1751977 45.8096908,81.97598 C45.7155226,81.7756758 45.6337643,81.5811669 45.5593057,81.3920913 L45.5494509,81.3920913 C45.5629557,81.623546 45.5724455,81.8528273 45.5793803,82.0821087 C45.5859502,82.309579 45.5888702,82.5475535 45.5888702,82.7902368 L45.5888702,86.0414683 C45.5888702,86.0726187 45.5808403,86.1023202 45.5629557,86.1283996 C45.544341,86.1533924 45.5133167,86.1744008 45.4706125,86.1921493 C45.4279084,86.2106222 45.3687795,86.2232997 45.294321,86.2330794 C45.2202275,86.2432214 45.1249644,86.2482924 45.0099917,86.2482924 C44.8961139,86.2482924 44.8026758,86.2432214 44.7285823,86.2330794 C44.6544888,86.2232997 44.5968199,86.2106222 44.5555757,86.1921493 C44.5128716,86.1758497 44.4833072,86.1533924 44.4683425,86.1283996 C44.4519178,86.1023202 44.443523,86.0726187 44.443523,86.0414683 L44.443523,80.458304 C44.443523,80.307623 44.4880521,80.1953368 44.5771103,80.1196341 C44.6639786,80.0446558 44.7727464,80.0062611 44.9030488,80.0062611 L45.5823003,80.0062611 C45.7042079,80.0062611 45.8075008,80.0160409 45.8918141,80.0374115 C45.9757625,80.0587821 46.049856,80.0931924 46.1155547,80.1406425 C46.1812534,80.1880925 46.2436671,80.2554643 46.301701,80.3409467 C46.3593698,80.4242559 46.4184986,80.5303846 46.4790874,80.6549861 L47.6923233,82.9275158 C47.7631319,83.0651571 47.8321155,83.2009873 47.9014641,83.3335576 C47.9704478,83.46649 48.0376064,83.5994225 48.1000202,83.7316306 C48.1642589,83.8645631 48.2270376,83.9956845 48.2876264,84.1228215 C48.3504052,84.2524941 48.409534,84.3803556 48.4672029,84.5085793 L48.4723128,84.5085793 C48.462458,84.2836445 48.4536981,84.0492921 48.4489532,83.8073333 C48.4438433,83.5632011 48.4423834,83.3306599 48.4423834,83.108985 L48.4423834,80.1931635 C48.4423834,80.1620131 48.4522382,80.133036 48.4723128,80.1065944 C48.4901974,80.0819638 48.5230468,80.0587821 48.5679409,80.0395848 C48.613565,80.019663 48.6726938,80.0062611 48.7467873,79.9986546 C48.8208808,79.9899615 48.9165089,79.9870638 49.0311166,79.9870638 C49.1417094,79.9870638 49.2336876,79.9899615 49.3077811,79.9986546 C49.3818747,80.0062611 49.4380835,80.019663 49.4789627,80.0395848 C49.5187469,80.0587821 49.5479464,80.0819638 49.5629111,80.1065944 C49.5793357,80.133036 49.5880956,80.1605642 49.5880956,80.1931635 L49.5880956,85.7763278 Z M43.4051186,86.0465393 C43.4051186,86.0776897 43.3952638,86.1073912 43.3740942,86.1334706 C43.3525597,86.1581012 43.3178854,86.1794718 43.2700713,86.1957714 C43.2226222,86.2106222 43.1565586,86.2232997 43.0777201,86.2330794 C42.9970567,86.2432214 42.8933988,86.2482924 42.7682063,86.2482924 C42.6466637,86.2482924 42.5444657,86.2432214 42.4619774,86.2330794 C42.379854,86.2232997 42.3137903,86.2106222 42.2663413,86.1957714 C42.2185272,86.1794718 42.1838529,86.1581012 42.1626833,86.1334706 C42.1411488,86.1073912 42.131294,86.0776897 42.131294,86.0465393 L42.131294,80.1783127 C42.131294,80.1471623 42.1411488,80.1181852 42.1626833,80.0917436 C42.1838529,80.0671131 42.2185272,80.0457424 42.2696262,80.029805 C42.3189002,80.0135054 42.383139,80.0011901 42.4638024,79.9914104 C42.5444657,79.982355 42.6466637,79.977284 42.7682063,79.977284 C42.8933988,79.977284 42.9970567,79.982355 43.0777201,79.9914104 C43.1565586,80.0011901 43.2226222,80.0135054 43.2700713,80.029805 C43.3178854,80.0457424 43.3525597,80.0671131 43.3740942,80.0917436 C43.3952638,80.1181852 43.4051186,80.1471623 43.4051186,80.1783127 L43.4051186,86.0465393 Z M39.4719569,85.6904831 C39.4719569,85.7861075 39.468672,85.8683301 39.4602771,85.9331664 C39.4522473,85.9990893 39.4387426,86.0526969 39.4241429,86.0954382 C39.4077182,86.1399905 39.3880086,86.1711409 39.3631891,86.1892516 C39.3387345,86.2084489 39.3106301,86.2182287 39.2792407,86.2182287 L36.4209826,86.2182287 C36.3154997,86.2182287 36.2268065,86.1874405 36.1541729,86.1251397 C36.0819044,86.0628389 36.0457701,85.9614191 36.0457701,85.8201556 L36.0457701,80.1783127 C36.0457701,80.1471623 36.0556249,80.1181852 36.0771595,80.0917436 C36.098329,80.0671131 36.1330034,80.0457424 36.1808174,80.029805 C36.2282665,80.0135054 36.2943301,80.0011901 36.3764535,79.9914104 C36.4585769,79.982355 36.5607748,79.977284 36.6826824,79.977284 C36.8075099,79.977284 36.9115329,79.982355 36.9918313,79.9914104 C37.0710347,80.0011901 37.1367334,80.0135054 37.1845474,80.029805 C37.2323615,80.0457424 37.2666708,80.0671131 37.2882054,80.0917436 C37.3093749,80.1181852 37.3195947,80.1471623 37.3195947,80.1783127 L37.3195947,85.1768638 L39.2792407,85.1768638 C39.3106301,85.1768638 39.3401945,85.1848326 39.3631891,85.2033055 C39.3880086,85.2210539 39.4077182,85.2485822 39.4241429,85.2895124 C39.4405675,85.3289937 39.4522473,85.3815147 39.4602771,85.4485242 C39.468672,85.5137227 39.4719569,85.5944964 39.4719569,85.6904831 Z M32.6290731,81.1878027 L32.6243282,81.1878027 L31.7556455,83.8301528 L33.5065156,83.8301528 L32.6290731,81.1878027 Z M35.4924411,85.7487995 C35.5304003,85.8632591 35.5552199,85.954537 35.5647097,86.0219088 C35.5749295,86.0889183 35.5614247,86.1399905 35.5271154,86.1744008 C35.4909811,86.207 35.4285674,86.2283707 35.3376842,86.2367016 C35.2489909,86.2446703 35.1237984,86.2482924 34.9675815,86.2482924 C34.8029698,86.2482924 34.6748574,86.2468436 34.5843392,86.2417726 C34.491996,86.2367016 34.4226474,86.2269218 34.3737384,86.212071 C34.3259243,86.1972203 34.29271,86.1772985 34.2730004,86.1512191 C34.2532908,86.127313 34.2368661,86.0925405 34.2255513,86.0516103 L33.8156645,84.8034214 L31.4625563,84.8034214 L31.0690941,86.0168378 C31.0559544,86.0628389 31.0395297,86.100147 31.0183601,86.1298485 C30.9982855,86.1609989 30.9639762,86.1845428 30.9179871,86.2022913 C30.8716331,86.220402 30.8059344,86.2319928 30.7201611,86.2381504 C30.6347528,86.2446703 30.523065,86.2482924 30.3847328,86.2482924 C30.2365457,86.2482924 30.121573,86.2432214 30.0376247,86.2330794 C29.9533113,86.2232997 29.8960075,86.2008424 29.8646181,86.164621 C29.8317688,86.127313 29.820089,86.0740676 29.8299438,86.0066958 C29.8401636,85.9404106 29.8646181,85.851306 29.9025774,85.7386575 L31.8246291,80.2264871 C31.8425137,80.1717929 31.8655083,80.127965 31.8917878,80.0946413 C31.9169723,80.0605932 31.9578514,80.0359627 32.0136953,80.0182142 C32.0713642,80.0001035 32.1487427,79.9885126 32.2491157,79.9838039 C32.3480287,79.9787329 32.4794261,79.977284 32.6440378,79.977284 C32.833469,79.977284 32.984576,79.9787329 33.0966288,79.9838039 C33.2097765,79.9885126 33.2973748,80.0001035 33.3597885,80.0182142 C33.4225673,80.0359627 33.4667314,80.0620421 33.4948359,80.0968146 C33.5211153,80.133036 33.5455698,80.180486 33.5638195,80.2406135 L35.4924411,85.7487995 Z M28.1363775,81.8379766 C28.1363775,81.6333257 28.0903884,81.4594631 27.9965853,81.3200108 C27.9027822,81.1791096 27.7498502,81.0795008 27.5374244,81.022271 C27.4731857,81.0059714 27.4009171,80.9947427 27.3184288,80.9846007 C27.2363054,80.974821 27.1227927,80.96975 26.9778906,80.96975 L26.4085019,80.96975 L26.4085019,82.7293849 L27.055269,82.7293849 C27.2363054,82.7293849 27.3925223,82.7080142 27.5275696,82.6634619 C27.6640769,82.6210829 27.7761297,82.560231 27.8662829,82.4816306 C27.9568011,82.404479 28.0246897,82.309579 28.0692188,82.2016393 C28.113383,82.0933373 28.1363775,81.9723579 28.1363775,81.8379766 Z M29.7751949,86.0563191 C29.7751949,86.0903672 29.768625,86.1200687 29.7558503,86.1446993 C29.7423455,86.169692 29.7131461,86.1892516 29.6653321,86.2055512 C29.6156931,86.220402 29.5467094,86.2319928 29.4529063,86.2381504 C29.3591032,86.2446703 29.2324507,86.2482924 29.0725839,86.2482924 C28.9375366,86.2482924 28.8309587,86.2446703 28.7502953,86.2381504 C28.6696319,86.2319928 28.6053932,86.220402 28.5594041,86.2022913 C28.51305,86.1845428 28.4802007,86.1631722 28.4604911,86.1349195 C28.4426064,86.1073912 28.4261817,86.0740676 28.412677,86.0367595 L27.8502232,84.6458583 C27.7826995,84.4886575 27.7166359,84.3477563 27.6527621,84.2260525 C27.5885234,84.1039864 27.5158899,84.0018421 27.4370514,83.9199818 C27.358213,83.8384837 27.2658698,83.7776317 27.1622119,83.7352527 C27.0600139,83.6943226 26.9399313,83.6729519 26.805249,83.6729519 L26.4085019,83.6729519 L26.4085019,86.0465393 C26.4085019,86.0776897 26.3986471,86.1073912 26.3771125,86.1312973 C26.3559429,86.1581012 26.3212686,86.1794718 26.2738196,86.1957714 C26.2260055,86.2106222 26.1617668,86.2232997 26.0811034,86.2330794 C26.002265,86.2432214 25.898607,86.2482924 25.7748745,86.2482924 C25.6533319,86.2482924 25.551134,86.2432214 25.4690106,86.2330794 C25.3865222,86.2232997 25.3226485,86.2106222 25.2748345,86.1957714 C25.2270204,86.1794718 25.1927111,86.1581012 25.1744615,86.1334706 C25.1547519,86.1073912 25.1445321,86.0776897 25.1445321,86.0465393 L25.1445321,80.4046964 C25.1445321,80.2637952 25.1810313,80.1620131 25.2532999,80.0997123 C25.3259334,80.0374115 25.4146267,80.0062611 25.5201096,80.0062611 L27.1359324,80.0062611 C27.2987192,80.0062611 27.4352265,80.0098833 27.5407094,80.0160409 C27.6458273,80.0232852 27.7432803,80.0308917 27.8301486,80.0395848 C28.0805336,80.075444 28.3060991,80.1359337 28.5068451,80.222865 C28.7072261,80.307623 28.8784077,80.420996 29.0185649,80.5600861 C29.1583572,80.6995384 29.2653,80.8628969 29.3393936,81.0534214 C29.4134871,81.2435836 29.4496214,81.4616364 29.4496214,81.708304 C29.4496214,81.9151281 29.4233419,82.1052904 29.3704179,82.2751687 C29.316399,82.4475825 29.2390206,82.5997123 29.1353626,82.7340936 C29.0331647,82.868475 28.9065122,82.9847456 28.7550402,83.0829056 C28.6035682,83.1828766 28.4309266,83.2611148 28.2385755,83.3234156 C28.3323786,83.3679679 28.4192469,83.4219377 28.5017352,83.4864118 C28.5842236,83.5497992 28.6616021,83.6283996 28.7338706,83.720402 C28.8061392,83.8124043 28.8754878,83.9149108 28.9393615,84.0329925 C29.0036002,84.1499876 29.066014,84.2821956 29.1273328,84.4299789 L29.6554773,85.6567972 C29.7029263,85.7777766 29.7357757,85.8661568 29.7507404,85.9233866 C29.7671651,85.9791675 29.7751949,86.0237198 29.7751949,86.0563191 Z M24.341548,85.7223579 C24.341548,85.8158091 24.3378981,85.8922362 24.3298683,85.9567103 C24.3214734,86.0190111 24.3101587,86.0689966 24.293734,86.1073912 C24.2773093,86.1461481 24.2575997,86.1744008 24.2327802,86.1921493 C24.2097857,86.2106222 24.1816812,86.2182287 24.1539418,86.2182287 L21.0237641,86.2182287 C20.9186462,86.2182287 20.8299529,86.1874405 20.7573194,86.1251397 C20.6850508,86.0628389 20.6485515,85.9614191 20.6485515,85.8201556 L20.6485515,80.4046964 C20.6485515,80.2637952 20.6850508,80.1620131 20.7573194,80.0997123 C20.8299529,80.0374115 20.9186462,80.0062611 21.0237641,80.0062611 L24.1389771,80.0062611 C24.1670815,80.0062611 24.193361,80.0149543 24.2163555,80.0308917 C24.2378901,80.0471913 24.2575997,80.075444 24.2740244,80.1145631 C24.2886241,80.1554932 24.3017638,80.2065654 24.3101587,80.2688662 C24.3181885,80.3322536 24.3214734,80.410854 24.3214734,80.5079273 C24.3214734,80.5977563 24.3181885,80.673459 24.3101587,80.7372087 C24.3017638,80.7995095 24.2904491,80.8502194 24.2740244,80.8878896 C24.2575997,80.9273709 24.2378901,80.9548992 24.2163555,80.9733721 C24.193361,80.9911206 24.1670815,80.9994515 24.1389771,80.9994515 L21.9125214,80.9994515 L21.9125214,82.512781 L23.788584,82.512781 C23.8181485,82.512781 23.8444279,82.5211119 23.8674225,82.5388604 C23.892242,82.5573333 23.9119516,82.5834127 23.9283763,82.6210829 C23.9448009,82.6569421 23.9561157,82.705841 23.9645105,82.770315 C23.9729054,82.8326158 23.9761903,82.9075941 23.9761903,82.9959743 C23.9761903,83.0894254 23.9729054,83.166577 23.9645105,83.2274289 C23.9561157,83.2875564 23.9448009,83.3368175 23.9283763,83.3730389 C23.9119516,83.4107091 23.892242,83.4367885 23.8674225,83.4516393 C23.8444279,83.4679389 23.8181485,83.4762698 23.788584,83.4762698 L21.9125214,83.4762698 L21.9125214,85.2257627 L24.1539418,85.2257627 C24.1835062,85.2257627 24.2097857,85.2337314 24.2327802,85.2522043 C24.2575997,85.2695906 24.2773093,85.2978433 24.293734,85.3369624 C24.3101587,85.3749948 24.3214734,85.4253426 24.3298683,85.4876433 C24.3378981,85.5521174 24.341548,85.6292689 24.341548,85.7223579 Z M19.6101472,85.7763278 C19.6101472,85.8498572 19.5970075,85.9157801 19.572188,85.9744587 C19.5459085,86.0316885 19.5112342,86.0791386 19.4667051,86.1186199 C19.4240009,86.1562901 19.3729019,86.1845428 19.3137731,86.2022913 C19.2528193,86.220402 19.1936905,86.2283707 19.1327367,86.2283707 L18.5914525,86.2283707 C18.4779397,86.2283707 18.3808517,86.217142 18.2987283,86.1957714 C18.2176999,86.1725897 18.1421464,86.1312973 18.0731628,86.0726187 C18.0023542,86.0139401 17.9362905,85.9331664 17.8724168,85.8321087 C17.8081781,85.7317755 17.7359095,85.6006541 17.6548811,85.4401933 L16.1065819,82.5359627 C16.0160637,82.3621 15.9255455,82.1751977 15.8317424,81.97598 C15.7379393,81.7756758 15.6558159,81.5811669 15.5817224,81.3920913 L15.5718676,81.3920913 C15.5846423,81.623546 15.5948621,81.8528273 15.601432,82.0821087 C15.6080019,82.309579 15.6112868,82.5475535 15.6112868,82.7902368 L15.6112868,86.0414683 C15.6112868,86.0726187 15.602892,86.1023202 15.5846423,86.1283996 C15.5667577,86.1533924 15.5357333,86.1744008 15.4926642,86.1921493 C15.44996,86.2106222 15.3908312,86.2232997 15.3167377,86.2330794 C15.2426441,86.2432214 15.147381,86.2482924 15.0320433,86.2482924 C14.9185306,86.2482924 14.8247274,86.2432214 14.7506339,86.2330794 C14.6765404,86.2232997 14.6192365,86.2106222 14.5779924,86.1921493 C14.5349232,86.1758497 14.5053588,86.1533924 14.4907591,86.1283996 C14.4743344,86.1023202 14.4659396,86.0726187 14.4659396,86.0414683 L14.4659396,80.458304 C14.4659396,80.307623 14.5104687,80.1953368 14.5991619,80.1196341 C14.6863952,80.0446558 14.794798,80.0062611 14.9251004,80.0062611 L15.6047169,80.0062611 C15.7266245,80.0062611 15.8299174,80.0160409 15.9138658,80.0374115 C15.9981791,80.0587821 16.0719076,80.0931924 16.1379713,80.1406425 C16.20367,80.1880925 16.2660838,80.2554643 16.3237526,80.3409467 C16.3814215,80.4242559 16.4405503,80.5303846 16.5015041,80.6549861 L17.7140099,82.9275158 C17.7851835,83.0651571 17.8541672,83.2009873 17.9231508,83.3335576 C17.9924994,83.46649 18.0600231,83.5994225 18.1224368,83.7316306 C18.1866755,83.8645631 18.2490893,83.9956845 18.3100431,84.1228215 C18.3724568,84.2524941 18.4315857,84.3803556 18.4892545,84.5085793 L18.4943644,84.5085793 C18.4845096,84.2836445 18.4761148,84.0492921 18.4713699,83.8073333 C18.46626,83.5632011 18.4648,83.3306599 18.4648,83.108985 L18.4648,80.1931635 C18.4648,80.1620131 18.4746548,80.133036 18.4943644,80.1065944 C18.5122491,80.0819638 18.5450984,80.0587821 18.5896275,80.0395848 C18.6356166,80.019663 18.6951104,80.0062611 18.7692039,79.9986546 C18.8432975,79.9899615 18.9385606,79.9870638 19.0538983,79.9870638 C19.1641261,79.9870638 19.2561043,79.9899615 19.3301978,79.9986546 C19.4042913,80.0062611 19.4601352,80.019663 19.5013794,80.0395848 C19.5407986,80.0587821 19.570363,80.0819638 19.5853277,80.1065944 C19.6017524,80.133036 19.6101472,80.1605642 19.6101472,80.1931635 L19.6101472,85.7763278 Z M13.6625906,85.7223579 C13.6625906,85.8158091 13.6593056,85.8922362 13.6509108,85.9567103 C13.642881,86.0190111 13.6312012,86.0689966 13.6147765,86.1073912 C13.5983519,86.1461481 13.5786422,86.1744008 13.5538227,86.1921493 C13.5308282,86.2106222 13.5027238,86.2182287 13.4749843,86.2182287 L10.3451716,86.2182287 C10.2396887,86.2182287 10.1509955,86.1874405 10.0783619,86.1251397 C10.0060934,86.0628389 9.96995907,85.9614191 9.96995907,85.8201556 L9.96995907,80.4046964 C9.96995907,80.2637952 10.0060934,80.1620131 10.0783619,80.0997123 C10.1509955,80.0374115 10.2396887,80.0062611 10.3451716,80.0062611 L13.4600196,80.0062611 C13.488124,80.0062611 13.5144035,80.0149543 13.5373981,80.0308917 C13.5589326,80.0471913 13.5786422,80.075444 13.5950669,80.1145631 C13.6100316,80.1554932 13.6231714,80.2065654 13.6312012,80.2688662 C13.639596,80.3322536 13.642881,80.410854 13.642881,80.5079273 C13.642881,80.5977563 13.639596,80.673459 13.6312012,80.7372087 C13.6231714,80.7995095 13.6114916,80.8502194 13.5950669,80.8878896 C13.5786422,80.9273709 13.5589326,80.9548992 13.5373981,80.9733721 C13.5144035,80.9911206 13.488124,80.9994515 13.4600196,80.9994515 L11.2335639,80.9994515 L11.2335639,82.512781 L13.1096266,82.512781 C13.139191,82.512781 13.1654705,82.5211119 13.18883,82.5388604 C13.2132845,82.5573333 13.2329941,82.5834127 13.2497838,82.6210829 C13.2658435,82.6569421 13.2775232,82.705841 13.2855531,82.770315 C13.2939479,82.8326158 13.2972328,82.9075941 13.2972328,82.9959743 C13.2972328,83.0894254 13.2939479,83.166577 13.2855531,83.2274289 C13.2775232,83.2875564 13.2658435,83.3368175 13.2497838,83.3730389 C13.2329941,83.4107091 13.2132845,83.4367885 13.18883,83.4516393 C13.1654705,83.4679389 13.139191,83.4762698 13.1096266,83.4762698 L11.2335639,83.4762698 L11.2335639,85.2257627 L13.4749843,85.2257627 C13.5045487,85.2257627 13.5308282,85.2337314 13.5538227,85.2522043 C13.5786422,85.2695906 13.5983519,85.2978433 13.6147765,85.3369624 C13.6312012,85.3749948 13.642881,85.4253426 13.6509108,85.4876433 C13.6593056,85.5521174 13.6625906,85.6292689 13.6625906,85.7223579 Z M9.00528327,80.9733721 C9.00528327,81.06465 9.00199834,81.1454237 8.9936035,81.2124332 C8.98520867,81.279805 8.97389389,81.3334127 8.95892919,81.3732562 C8.94432948,81.4134619 8.92790481,81.4417146 8.90637024,81.4565654 C8.88520066,81.472865 8.86038115,81.4804715 8.83264171,81.4804715 C8.78957256,81.4804715 8.7224139,81.4514944 8.63007074,81.3942646 C8.5362676,81.3370348 8.41290006,81.2725607 8.25814314,81.2055512 C8.10338622,81.1381794 7.92088985,81.0744298 7.70663912,81.0172 C7.49275337,80.9599702 7.24455831,80.9302687 6.96132395,80.9302687 C6.66020494,80.9302687 6.38719038,80.9824275 6.14337523,81.0860206 C5.8984651,81.1914248 5.68932427,81.3384837 5.5166827,81.5279215 C5.34367615,81.7198949 5.2104538,81.9473652 5.11665066,82.21649 C5.02284753,82.4838039 4.97685845,82.7779215 4.97685845,83.1028273 C4.97685845,83.4577969 5.0246725,83.7714741 5.11847563,84.0431345 C5.21373873,84.313346 5.34696108,84.5397297 5.5166827,84.7230099 C5.6874993,84.9048412 5.89335521,85.0424825 6.13206045,85.1359337 C6.37222568,85.2293849 6.6372104,85.2746616 6.92518967,85.2746616 C7.06680685,85.2746616 7.20659907,85.258362 7.34456632,85.2272116 C7.48472353,85.1946123 7.61320098,85.1453512 7.73145862,85.0816016 L7.73145862,83.6334706 L6.5518021,83.6334706 C6.49413325,83.6334706 6.44960413,83.5972492 6.41675479,83.5251687 C6.38536541,83.4530881 6.36894074,83.3321087 6.36894074,83.1586083 C6.36894074,83.0702281 6.37222568,82.9945254 6.38062051,82.9336735 C6.38865035,82.873546 6.40179009,82.8239227 6.41675479,82.7880635 C6.43317946,82.7503933 6.45288907,82.7243139 6.47405865,82.705841 C6.49741818,82.6880925 6.52369766,82.6797616 6.5518021,82.6797616 L8.65781019,82.6797616 C8.70890917,82.6797616 8.75526325,82.6880925 8.79431747,82.705841 C8.83556165,82.7243139 8.87023596,82.7503933 8.90162533,82.7866146 C8.93118974,82.8213872 8.95564426,82.8637662 8.97060896,82.9126651 C8.98703363,82.963375 8.99542847,83.0206048 8.99542847,83.0843544 L8.99542847,85.5618972 C8.99542847,85.6582461 8.97900379,85.7415552 8.94432948,85.8136358 C8.91148014,85.8860786 8.84213152,85.9433084 8.73701361,85.9842385 C8.63335567,86.0266175 8.50341826,86.0689966 8.34866134,86.1149977 C8.19390442,86.15955 8.03440259,86.1986691 7.86796591,86.2298195 C7.70371917,86.2631432 7.53582252,86.2870493 7.36610089,86.3019001 C7.19820424,86.3181997 7.02884761,86.3265306 6.85766601,86.3265306 C6.35908594,86.3265306 5.91306481,86.2544501 5.51814267,86.1124622 C5.1250455,85.9693878 4.79071215,85.7629259 4.51769759,85.4927143 C4.24468302,85.2221406 4.03554218,84.8932504 3.89064007,84.5035083 C3.74573795,84.1137662 3.67346939,83.6729519 3.67346939,83.1799789 C3.67346939,82.6707062 3.75084785,82.2135923 3.90560477,81.8089995 C4.05853672,81.4022333 4.27753237,81.0581301 4.56040174,80.7745167 C4.8436361,80.4916277 5.18417432,80.2750238 5.58566633,80.1243428 C5.98569837,79.9736619 6.4313545,79.8979592 6.92190473,79.8979592 C7.19345933,79.8979592 7.43873445,79.9164321 7.66065003,79.9541023 C7.88147064,79.9914104 8.07528178,80.0359627 8.24171847,80.0899325 C8.4059652,80.1420913 8.54429744,80.2000455 8.65306528,80.260173 C8.76329309,80.3224738 8.83921158,80.3749948 8.88191573,80.420996 C8.92607985,80.4655483 8.95746922,80.5289357 8.97571886,80.6111583 C8.99542847,80.6912075 9.00528327,80.8129114 9.00528327,80.9733721 L9.00528327,80.9733721 Z" id="Fill-11" fill="#273777"></path>
                    <path d="M86.3265306,85.73029 C86.3265306,85.8240316 86.322762,85.9006963 86.314848,85.9653708 C86.3058034,86.0278653 86.2941208,86.0780062 86.2771621,86.1165202 C86.2602035,86.1553976 86.2398531,86.1837381 86.2146035,86.2015417 C86.1904846,86.220072 86.1618433,86.2277022 86.1328252,86.2277022 L82.9008836,86.2277022 C82.7927251,86.2277022 82.7007716,86.1968183 82.6257766,86.1343238 C82.5511586,86.0718294 82.5138496,85.9700942 82.5138496,85.8283917 L82.5138496,80.3960981 C82.5138496,80.2547589 82.5511586,80.1526604 82.6257766,80.0901659 C82.7007716,80.0276715 82.7927251,79.9964243 82.9008836,79.9964243 L86.1173739,79.9964243 C86.1463921,79.9964243 86.1735259,80.0051444 86.1976449,80.0211314 C86.2198796,80.0374817 86.2398531,80.0658222 86.2571886,80.1050629 C86.2722629,80.1461203 86.2862067,80.1973512 86.2941208,80.2598456 C86.3031654,80.3234301 86.3058034,80.4022749 86.3058034,80.4996499 C86.3058034,80.5897582 86.3031654,80.6656962 86.2941208,80.729644 C86.2862067,80.7921385 86.2733935,80.8430061 86.2571886,80.8807934 C86.2398531,80.9203974 86.2198796,80.9480113 86.1976449,80.9665416 C86.1735259,80.9843452 86.1463921,80.9927021 86.1173739,80.9927021 L83.8189118,80.9927021 L83.8189118,82.5107358 L85.7559663,82.5107358 C85.786115,82.5107358 85.8136257,82.5190926 85.836991,82.5368963 C85.8629942,82.5554266 85.8833446,82.5815871 85.9003032,82.6193744 C85.9172619,82.6553451 85.9289445,82.704396 85.9372354,82.7690704 C85.9459032,82.8315649 85.9496718,82.9067762 85.9496718,82.9954311 C85.9496718,83.0891728 85.9459032,83.1665642 85.9372354,83.2276053 C85.9289445,83.2879197 85.9172619,83.3373339 85.9003032,83.3736679 C85.8833446,83.4114552 85.8629942,83.4376157 85.836991,83.4525126 C85.8136257,83.4688629 85.786115,83.4772197 85.7559663,83.4772197 L83.8189118,83.4772197 L83.8189118,85.2321511 L86.1328252,85.2321511 C86.1637276,85.2321511 86.1904846,85.2401446 86.2146035,85.2586749 C86.2398531,85.2761152 86.2602035,85.3044557 86.2771621,85.3436964 C86.2941208,85.3818471 86.3058034,85.4323513 86.314848,85.4948458 C86.322762,85.5595203 86.3265306,85.6369116 86.3265306,85.73029 Z M81.9037151,85.2862887 C81.9037151,85.3669501 81.9022076,85.4359847 81.8969316,85.491939 C81.8916556,85.5478934 81.8829878,85.5969443 81.8728126,85.6369116 C81.8645218,85.6772424 81.850578,85.712123 81.8336193,85.7419168 C81.8166607,85.7695307 81.791788,85.8022313 81.7541021,85.8382019 C81.7183005,85.8745359 81.6466973,85.9221334 81.5430611,85.9802678 C81.4375407,86.0354954 81.3101624,86.0914497 81.1594188,86.144134 C81.0079216,86.1953649 80.8364508,86.2393291 80.6427453,86.2738463 C80.4490399,86.308727 80.2387526,86.3265306 80.0126373,86.3265306 C79.5724662,86.3265306 79.1748801,86.2604028 78.8195022,86.1292371 C78.464878,85.9980714 78.1622603,85.8007779 77.9142872,85.5395366 C77.6648067,85.2782952 77.4741161,84.9527428 77.3414618,84.5603357 C77.2091843,84.1690188 77.1428571,83.713754 77.1428571,83.1949047 C77.1428571,82.6655186 77.2155909,82.1957202 77.362189,81.7847829 C77.5080334,81.3738455 77.711914,81.029036 77.9738309,80.7492644 C78.2349941,80.4698561 78.5492944,80.2598456 78.9167318,80.1148731 C79.281908,79.9702638 79.6859007,79.8979592 80.128333,79.8979592 C80.3062104,79.8979592 80.478058,79.9128561 80.6442528,79.94265 C80.8112013,79.9702638 80.9638291,80.0084145 81.1051512,80.056012 C81.2464732,80.1014295 81.3715904,80.1562938 81.4854017,80.2173349 C81.5973288,80.279466 81.6775998,80.3321503 81.7216922,80.374661 C81.7657847,80.4186251 81.7963103,80.4549591 81.8136458,80.4832996 C81.8306045,80.5123668 81.8441714,80.5487008 81.8528391,80.5933916 C81.8622606,80.6395358 81.8713052,80.6918567 81.8762044,80.7521711 C81.8814804,80.8132122 81.8829878,80.8869702 81.8829878,80.9778051 C81.8829878,81.0730002 81.879973,81.1554783 81.8728126,81.2226962 C81.8660292,81.2902774 81.8543466,81.3440517 81.8388954,81.3851091 C81.8219367,81.4265298 81.8012095,81.457777 81.7793517,81.4752173 C81.7556095,81.495201 81.7284757,81.5050112 81.6998344,81.5050112 C81.6504659,81.5050112 81.5879074,81.4773974 81.511405,81.421443 C81.4349027,81.3654887 81.3361656,81.3029943 81.2155708,81.2339597 C81.0945991,81.1652885 80.9502622,81.102794 80.7818063,81.0468397 C80.6156115,80.990522 80.41663,80.9629082 80.1841081,80.9629082 C79.9293515,80.9629082 79.7013519,81.0141391 79.5012399,81.1140576 C79.300751,81.2165194 79.1307876,81.3589486 78.9894655,81.5464319 C78.8481435,81.7350053 78.7414924,81.9620927 78.6687587,82.2284208 C78.5948943,82.4929322 78.5598464,82.7937775 78.5598464,83.1273235 C78.5598464,83.4921167 78.5986629,83.8093123 78.6766727,84.0770938 C78.7546825,84.3430585 78.8658558,84.5650592 79.0101928,84.7376456 C79.1530223,84.910232 79.3275079,85.0399443 79.5313886,85.1235125 C79.7352692,85.209624 79.9647763,85.2521348 80.2195328,85.2521348 C80.4505473,85.2521348 80.6514131,85.2259743 80.8209996,85.17329 C80.9894555,85.1202424 81.1337924,85.0613814 81.2543873,84.9988869 C81.3764895,84.9349391 81.4752266,84.8775314 81.5532363,84.8263005 C81.6312461,84.7750696 81.6907898,84.7489091 81.7348823,84.7489091 C81.7672922,84.7489091 81.7948029,84.7554492 81.8136458,84.7688928 C81.8336193,84.7816097 81.850578,84.8063168 81.8645218,84.8462842 C81.8762044,84.8837082 81.8867564,84.9378458 81.893163,85.0072437 C81.8999465,85.0773683 81.9037151,85.1696566 81.9037151,85.2862887 L81.9037151,85.2862887 Z" id="Fill-12" fill="#273777"></path>
                    <polygon id="Fill-13" fill="#273777" points="3.67346939 78.0612245 86.3265306 78.0612245 86.3265306 51.4285714 3.67346939 51.4285714"></polygon>
                    <path d="M75.0353601,67.2878934 L75.0353601,70.8121424 L72.3141182,70.8121424 L72.3141182,58.6792536 L74.2654566,58.6792536 L74.2654566,54.1838449 L64.6859619,54.1838449 L64.6859619,58.6792536 L66.5696761,58.6792536 L66.5696761,70.8121424 L64.6859619,70.8121424 L64.6859619,75.3061224 L80.8163265,75.3061224 L80.8163265,67.2878934 L75.0353601,67.2878934 Z M25.2274124,58.2781457 C25.2274124,53.9781119 21.3269055,54.1852736 21.3269055,54.1852736 L8.26530612,54.1852736 L8.26530612,58.6578231 L10.2502758,58.6578231 L10.2502758,70.8335729 L8.26530612,70.8335729 L8.26530612,75.3061224 L21.3269055,75.3061224 C25.539858,75.1325352 25.2274124,71.1782471 25.2274124,71.1782471 L25.2274124,58.2781457 Z M16.0330504,70.8335729 L19.449339,70.8335729 L19.449339,58.6578231 L16.0330504,58.6578231 L16.0330504,70.8335729 Z M38.0094742,62.5524629 L34.5667868,62.5524629 L34.5667868,54.1838449 L26.6901929,54.1838449 L26.6901929,58.6792536 L28.8180052,58.6792536 L28.8180052,70.8121424 L26.6901929,70.8121424 L26.6901929,75.3061224 L34.5667868,75.3061224 L34.5667868,67.079303 L38.0094742,67.079303 L38.0094742,75.3061224 L45.8820902,75.3061224 L45.8820902,70.8121424 L43.7915255,70.8121424 L43.7915255,58.6792536 L45.8820902,58.6792536 L45.8820902,54.1838449 L38.0094742,54.1838449 L38.0094742,62.5524629 Z M46.9590149,58.6792536 L49.087912,58.6792536 L49.087912,70.8121424 L46.8588443,70.8121424 L46.8588443,75.3061224 L56.9909047,75.3061224 L56.9909047,70.8121424 L54.8301844,70.8121424 L54.8301844,67.010011 L59.2235887,67.010011 L59.2235887,62.4799563 L54.8301844,62.4799563 L54.8301844,58.6792536 L58.5263722,58.6792536 L58.5263722,60.751942 L63.0543017,60.751942 L63.0543017,54.1838449 L46.9590149,54.1838449 L46.9590149,58.6792536 L46.9590149,58.6792536 Z" id="Fill-14" fill="#FFFFFE"></path>
                    <path d="M67.2120128,48.6376119 L66.7751648,48.6391219 C66.7766149,48.6138291 66.7766149,48.5889137 66.7766149,48.5628658 C66.7766149,47.4586623 65.9170576,46.5628419 64.8555713,46.5628419 C63.7948101,46.5628419 62.9352528,47.4586623 62.9352528,48.5628658 C62.9352528,48.5911788 62.9352528,48.6183591 62.9367029,48.6455395 L56.877023,48.6568647 C56.8784731,48.6259093 56.8791982,48.5945763 56.8791982,48.5628658 C56.8791982,47.4586623 56.0189158,46.5628419 54.9581546,46.5628419 C53.8973934,46.5628419 53.037111,47.4586623 53.037111,48.5628658 C53.037111,48.5968413 53.037836,48.6300618 53.0400112,48.6640373 L52.698871,48.6640373 C51.8704912,48.6640373 51.0410238,48.6640373 50.2119189,48.6640373 C49.6220835,48.748221 49.5586408,48.2578414 49.6032319,47.6342024 C49.6032319,46.3393586 49.6032319,45.0448924 49.6032319,43.7500486 C49.6420226,43.0342982 50.0364546,42.7817471 50.6183144,42.7726869 C51.1932861,42.7726869 51.7682579,42.7726869 52.3439546,42.7726869 C53.3162586,41.4865258 54.2889252,40.2007422 55.2612292,38.9149585 C55.4348808,38.6782626 55.6578364,38.5725611 55.9210328,38.5714286 C57.9341589,38.5714286 59.947285,38.5714286 61.960411,38.5714286 C62.4530886,38.5921914 62.8036546,38.7379085 63.0258851,38.9942347 C64.0319044,40.2626531 65.0390112,41.530694 66.0450305,42.7987348 C69.0707013,42.8840511 70.5364079,44.0007122 70.7133223,45.9690258 C70.7133223,46.6209777 70.7133223,47.2729297 70.7133223,47.9245041 C70.7303612,48.3816632 70.5208192,48.6043914 70.1300124,48.6376119 C69.1577084,48.6376119 68.1850419,48.6376119 67.2120128,48.6376119" id="Fill-15" fill="#FFFFFE"></path>
                    <path d="M67.6214484,48.0852862 L67.7868895,48.0845728 L67.7868895,48.0838593 L70.7416154,48.0838593 C70.8591559,48.0728009 70.9431661,48.0428359 70.9906982,47.9914675 C71.041178,47.9354617 71.0654967,47.8387892 71.0599697,47.6971694 L71.0592328,47.6875378 L71.0592328,45.8425557 C70.9726433,45.0096027 70.5964399,44.3575092 69.8996714,43.9048251 C69.1656879,43.427527 68.0746612,43.1596264 66.5945347,43.1207434 L66.462624,43.1175329 L63.3140852,39.4293524 C63.2322858,39.3430249 63.1243254,39.2738202 62.9909408,39.2238787 C62.8428176,39.1685863 62.6630064,39.1357676 62.4492963,39.1264928 L56.3110274,39.1272062 L56.3110274,39.1261361 C56.2218587,39.1264928 56.1404278,39.1429021 56.0671031,39.1778612 C55.9945154,39.2121068 55.9274547,39.266329 55.8685002,39.3419547 C55.0991439,40.4802644 53.7269779,41.9749425 52.8135516,43.0968428 L50.9214806,43.0968428 L50.9214806,43.0961294 C50.6919265,43.0996966 50.5062198,43.1428604 50.3827838,43.2434568 C50.2667172,43.3376323 50.1933925,43.4974451 50.1768115,43.7428719 L50.1768115,47.4132162 L50.1760746,47.4331928 C50.155809,47.6875378 50.1572829,47.9076371 50.2169743,48.0346313 C50.2479254,48.0991985 50.3227239,48.1313038 50.4704787,48.1120406 L50.5084306,48.1091868 L53.0361049,48.1091868 L53.0361049,48.1099003 L53.1005863,48.1099003 C53.1462761,47.5837308 53.3850418,47.1107133 53.7490858,46.758269 C54.154398,46.3658714 54.7140973,46.1232983 55.3323827,46.1232983 C55.950668,46.1232983 56.5103673,46.3658714 56.9156795,46.758269 C57.2775127,47.108573 57.5166469,47.5787366 57.5634421,48.1020523 L63.1622773,48.0924207 C63.2112833,47.5733858 63.4485751,47.1064326 63.8085661,46.758269 C64.2138783,46.3658714 64.7735776,46.1232983 65.3925998,46.1232983 C66.0108851,46.1232983 66.5705844,46.3658714 66.9758966,46.758269 C67.3333083,47.1050057 67.5709686,47.5691051 67.6214484,48.0852862 Z M67.7868895,48.6385668 L67.0484844,48.6392803 C67.052169,48.5237013 67.0569591,48.407409 67.0584329,48.2914733 L67.057696,48.2914733 C67.057696,47.8462804 66.8716209,47.4431811 66.5698475,47.1510233 C66.2684426,46.8592222 65.8524449,46.6787193 65.3925998,46.6787193 C64.9327547,46.6787193 64.5160201,46.8592222 64.2146152,47.1510233 C63.9128418,47.4431811 63.7263982,47.8462804 63.7263982,48.2914733 L63.7271352,48.3578242 L63.7389261,48.6449879 L56.9827402,48.6567598 C56.9882672,48.5354733 56.9978473,48.4127598 56.9993212,48.2914733 L56.9978473,48.2914733 C56.9978473,47.8462804 56.8114037,47.4431811 56.5096304,47.1510233 C56.2089624,46.8592222 55.7922278,46.6787193 55.3323827,46.6787193 C54.8725376,46.6787193 54.4565399,46.8592222 54.155135,47.1510233 C53.8533616,47.4431811 53.6672865,47.8462804 53.6672865,48.2914733 L53.6665495,48.3314265 L53.6838674,48.6624674 L53.0361049,48.6635376 L53.0361049,48.664251 L50.5202215,48.664251 C50.0846951,48.7145493 49.8348754,48.5558066 49.6974378,48.2665026 C49.5887404,48.0381985 49.5780549,47.7371226 49.6031106,47.4075086 L49.6031106,43.7428719 L49.6038475,43.7275328 C49.6285347,43.305527 49.775184,43.0126557 50.0146867,42.8178838 C50.2486623,42.6281061 50.5574365,42.5474862 50.9181644,42.5424921 L50.9214806,42.5414219 L52.5364655,42.5414219 L55.4152874,39.0023525 C55.5309856,38.8568086 55.6654756,38.7497911 55.816178,38.6784461 C55.966512,38.6071011 56.1319531,38.5732122 56.3102905,38.5724987 L56.3110274,38.5714286 L62.4492963,38.5714286 L62.4599819,38.5724987 C62.742595,38.5839139 62.9879931,38.6295748 63.1969131,38.7073408 C63.4198348,38.7908145 63.6018568,38.9103174 63.74519,39.0633524 L66.7397102,42.5713868 C68.2684741,42.6259657 69.4169814,42.9238312 70.2187627,43.4446498 C71.0743399,44.0007842 71.5319742,44.7984214 71.630723,45.8147312 L71.6325653,45.8397019 L71.6325653,47.6875378 L71.6318284,47.6875378 C71.6414085,47.9732746 71.5673469,48.1948008 71.4188552,48.3585376 C71.2655735,48.5258417 71.0489157,48.6164499 70.7762512,48.6385668 L70.7526694,48.6392803 L67.7868895,48.6392803 L67.7868895,48.6385668 L67.7868895,48.6385668 Z" id="Fill-16" fill="#D8232A"></path>
                    <path d="M65.2044888,46.8367347 C66.218337,46.8367347 67.0408163,47.6588979 67.0408163,48.6728586 C67.0408163,49.6880408 66.218337,50.5102041 65.2044888,50.5102041 C64.1898262,50.5102041 63.3673469,49.6880408 63.3673469,48.6728586 C63.3673469,47.6588979 64.1898262,46.8367347 65.2044888,46.8367347" id="Fill-17" fill="#FFFFFE"></path>
                </g>
            </g>
        </g>
    </g>
</svg>