<?xml version="1.0" encoding="UTF-8"?>
<svg width="120px" height="121px" viewBox="0 0 120 121" version="1.1" xmlns="http://www.w3.org/2000/svg" xmlns:xlink="http://www.w3.org/1999/xlink">
    <!-- Generator: Sketch 47 (45396) - http://www.bohemiancoding.com/sketch -->
    <title>Group</title>
    <desc>Created with Sketch.</desc>
    <defs></defs>
    <g id="Page-1" stroke="none" stroke-width="1" fill="none" fill-rule="evenodd">
        <g id="Mobile" transform="translate(-71.000000, -442.000000)">
            <g id="Group" transform="translate(71.000000, 442.000000)">
                <circle id="Oval" fill="#FFFFFF" cx="60" cy="61" r="60"></circle>
                <rect id="Rectangle" fill="#FFFFFF" x="0" y="0" width="120" height="60"></rect>
                <g id="FINAL-DHFLGI-LOGO---12-07-17" transform="translate(10.000000, 0.000000)">
                    <path d="M50,3.06122449 L50,3.06122449 C75.2552639,3.06122449 95.9183673,23.4827542 95.9183673,48.4354016 L95.9183673,55.1020408 L4.08163265,55.1020408 L4.08163265,48.4354016 C4.08163265,23.4799273 24.7451408,3.06122449 50,3.06122449" id="Fill-4" fill="#D8232A"></path>
                    <polyline id="Fill-5" fill="#FFFFFE" points="32.0818272 55.1020408 31.9486241 35.4535596 25.5102041 35.5107381 46.6367013 16.3265306 67.3469388 35.1950481 60.7192729 35.1841762 60.7192729 55.1020408 32.0818272 55.1020408"></polyline>
                    <path d="M35.7142857,20.8688248 C32.2203405,17.2843977 27.7038152,20.9025871 28.7158572,24.3539749 C29.836402,28.1759437 33.3268345,30.0718557 35.7142857,32.6530612 C38.1017369,30.0718557 41.5921695,28.1759437 42.7127142,24.3539749 C43.7247563,20.9025871 39.208231,17.2843977 35.7142857,20.8688248" id="Fill-6" fill="#FFFFFE"></path>
                    <path d="M33.010444,19.3879365 C34.0641606,19.3981682 35.1836592,19.8082557 36.2245402,20.7745397 C37.2654212,19.8082557 38.3849199,19.3981682 39.4386364,19.3879365 C40.2721435,19.3801603 41.0607262,19.6228568 41.7337891,20.0382648 C42.4068521,20.4532635 42.9676042,21.0426108 43.3458511,21.7277271 L43.3450489,21.7281363 C43.85847,22.6575862 44.0389696,23.7630216 43.7160759,24.8541326 C42.8745466,27.6969148 40.8036145,29.5001538 38.7792112,31.2628752 C37.9637541,31.9725476 37.1559182,32.6756717 36.4503653,33.4315914 L36.2245402,33.6734694 L35.9987152,33.4315914 C35.2931623,32.6756717 34.4857274,31.9725476 33.6702703,31.2628752 C31.645867,29.5001538 29.5745338,27.6973241 28.7334057,24.8541326 C28.4101108,23.7617938 28.5898082,22.6563583 29.1032293,21.7277271 C29.4814763,21.0426108 30.0418272,20.4536728 30.7148902,20.0382648 C31.3883543,19.6228568 32.176937,19.3801603 33.010444,19.3879365 Z M36.0051329,21.4387832 C35.0296329,20.4475338 33.9803285,20.0325351 33.0052296,20.0231219 C32.29366,20.0165736 31.6173882,20.2253007 31.0369817,20.5834111 C30.4561741,20.9419307 29.9728363,21.4494242 29.6471348,22.0391808 C29.2131335,22.8237493 29.0603105,23.754427 29.3310599,24.6699616 C30.1204448,27.3363489 32.1203804,29.077379 34.0753916,30.7795286 C34.8182478,31.4265828 35.5550873,32.0679073 36.2245402,32.7567069 C36.8943943,32.0679073 37.6308327,31.4265828 38.3736888,30.7795286 C40.3291011,29.077379 42.3290367,27.3363489 43.1184216,24.6699616 C43.389171,23.7536084 43.236348,22.8229308 42.803149,22.0391808 L42.8019457,22.0391808 C42.4762442,21.4494242 41.9929063,20.9419307 41.4120987,20.5834111 C40.8312911,20.2253007 40.1550193,20.0165736 39.4434498,20.0231219 C38.4687519,20.0325351 37.4194476,20.4475338 36.4443486,21.4387832 L36.2249413,21.662244 L36.0051329,21.4387832 L36.0051329,21.4387832 Z" id="Fill-7" fill="#D8232A"></path>
                    <polyline id="Fill-8" fill="#D8232A" points="31.6326531 27.1632469 33.6514999 27.1632469 34.1471309 25.755484 34.8446857 26.8868043 35.7793153 23.4693878 36.5791989 27.2851329 37.3689278 25.1443784 37.98915 27.168692 39.7959184 27.1665977 39.7959184 27.5196903 37.7743375 27.5196903 37.3493994 26.1617708 36.4827286 28.5714286 35.7402585 24.8805014 34.9509202 27.6378066 34.2170426 26.5098372 33.8764672 27.517596 31.6326531 27.517596 31.6326531 27.1632469"></polyline>
                    <path d="M61.709194,20.3552583 L57.1428571,17.8775123 L58.0625427,16.9016226 C60.0017096,17.3689724 62.2159994,17.6509665 64.1543836,18.1179202 C65.0106696,17.2758985 65.8661729,16.4334808 66.7220675,15.591459 C67.8464321,14.747061 68.842432,15.9586059 68.1246859,16.8667694 C67.241005,17.761071 66.3565414,18.6553725 65.4732519,19.549674 L66.4614247,25.658094 L65.6031819,26.5306122 L63.153296,21.7790908 L61.5076459,23.3419402 L61.6634054,24.968159 L60.9503555,25.5986851 L59.8839116,23.4805609 L57.9302646,22.3775362 L58.6135714,21.6721549 L60.3104892,21.9565253 L61.709194,20.3552583" id="Fill-9" fill="#FFFFFE"></path>
                    <path d="M61.2244898,52.0408163 C62.3516428,52.0408163 63.2653061,52.9543311 63.2653061,54.080954 C63.2653061,55.2089343 62.3516428,56.122449 61.2244898,56.122449 C60.0973368,56.122449 59.1836735,55.2089343 59.1836735,54.080954 C59.1836735,52.9543311 60.0973368,52.0408163 61.2244898,52.0408163" id="Fill-10" fill="#FFFFFE"></path>
                    <path d="M85.7142857,95.3070309 C85.7142857,95.3887302 85.7000916,95.4619779 85.6721088,95.5271764 C85.6429094,95.590765 85.6047879,95.6434873 85.5549056,95.6873554 C85.5074565,95.7292112 85.4510854,95.7606031 85.3853867,95.7803236 C85.3172547,95.8004466 85.251556,95.8093007 85.1842352,95.8093007 L84.5824027,95.8093007 C84.4562774,95.8093007 84.3488073,95.7968245 84.2567481,95.7730793 C84.1671221,95.7473219 84.0831737,95.7014415 84.0065253,95.636243 C83.927849,95.5710445 83.855256,95.481296 83.7838797,95.3690097 C83.7125033,95.2575283 83.6317994,95.1118378 83.5421734,94.9335481 L81.821841,91.7066252 C81.7212652,91.5134445 81.6206894,91.3057752 81.5160582,91.0844223 C81.412238,90.861862 81.3205843,90.6457411 81.2382581,90.435657 L81.2269028,90.435657 C81.2419081,90.6928289 81.2532634,90.9475859 81.2601577,91.202343 C81.2674576,91.4550878 81.271513,91.7195039 81.271513,91.989152 L81.271513,95.6016315 C81.271513,95.636243 81.2617799,95.6692447 81.2419081,95.6982218 C81.2224418,95.7259915 81.1875647,95.7493342 81.1397101,95.7690547 C81.092261,95.7895802 81.0265623,95.8036663 80.9442362,95.8145327 C80.8619101,95.8258016 80.7556566,95.831436 80.6275036,95.831436 C80.5013784,95.831436 80.3975582,95.8258016 80.3152321,95.8145327 C80.2329059,95.8036663 80.1688294,95.7895802 80.1230026,95.7690547 C80.0751479,95.7509441 80.0427042,95.7259915 80.0260767,95.6982218 C80.0078271,95.6692447 79.9984995,95.636243 79.9984995,95.6016315 L79.9984995,89.3981156 C79.9984995,89.2306923 80.0483818,89.1059297 80.1465243,89.0218156 C80.2438557,88.9385064 80.3643033,88.8958457 80.5086782,88.8958457 L81.2642132,88.8958457 C81.399666,88.8958457 81.514436,88.9067121 81.6081174,88.9304572 C81.7005823,88.9542024 81.7829084,88.9924361 81.856718,89.0451583 C81.9297166,89.0978805 81.9994708,89.1727381 82.0635473,89.2677186 C82.1268127,89.3602843 82.1925114,89.4782051 82.2606433,89.6166513 L83.6078721,92.1416843 C83.6865483,92.294619 83.7631968,92.4455414 83.8402508,92.5928417 C83.9168993,92.7405445 83.9923311,92.8882473 84.0620853,93.0351451 C84.1330561,93.1828479 84.2019991,93.3285383 84.2701311,93.4698017 C84.3390742,93.6138823 84.4047729,93.7559507 84.4688494,93.8984214 L84.4745271,93.8984214 C84.4635773,93.6484939 84.4546552,93.3881024 84.4493831,93.1192592 C84.4437054,92.8480013 84.4420833,92.5896221 84.4420833,92.3433166 L84.4420833,89.103515 C84.4420833,89.0689034 84.4522219,89.0367066 84.4745271,89.0073271 C84.49521,88.9799598 84.5317093,88.9542024 84.5807805,88.932872 C84.632285,88.9107367 84.6979837,88.8958457 84.7803099,88.887394 C84.862636,88.877735 84.9688894,88.8745153 85.0962313,88.8745153 C85.2191122,88.8745153 85.3213102,88.877735 85.4036363,88.887394 C85.4859625,88.8958457 85.5480112,88.9107367 85.5938381,88.932872 C85.6372317,88.9542024 85.6704866,88.9799598 85.687114,89.0073271 C85.7053637,89.0367066 85.7142857,89.0672936 85.7142857,89.103515 L85.7142857,95.3070309 Z M76.2029806,90.2086697 L76.1973029,90.2086697 L75.2316943,93.1446142 L77.1771056,93.1446142 L76.2029806,90.2086697 Z M79.3836895,95.2764439 C79.4258664,95.4036212 79.4534437,95.5050411 79.464799,95.5798986 C79.4757488,95.6543537 79.4607435,95.7111005 79.422622,95.7493342 C79.3820673,95.7855556 79.3127187,95.8093007 79.2121429,95.8185573 C79.1135949,95.8274114 78.9744921,95.831436 78.8009178,95.831436 C78.6180158,95.831436 78.4752631,95.8298262 78.3746873,95.8241917 C78.2724894,95.8185573 78.1958409,95.8076909 78.141092,95.79119 C78.0879653,95.7746892 78.051466,95.7525539 78.0295664,95.7235768 C78.0072613,95.6970144 77.9890117,95.6583783 77.9764397,95.6129003 L77.5210099,94.2260237 L74.9060397,94.2260237 L74.4688595,95.5742642 C74.4546654,95.6253766 74.4364157,95.66683 74.412894,95.6998317 C74.3905889,95.7344432 74.3524674,95.7606031 74.3009629,95.7803236 C74.2494583,95.8004466 74.1768653,95.8133253 74.0815617,95.8201671 C73.9866636,95.8274114 73.8621605,95.831436 73.708458,95.831436 C73.5438057,95.831436 73.4164638,95.8258016 73.3227823,95.8145327 C73.2295064,95.8036663 73.1658355,95.7787138 73.1309584,95.7384678 C73.0948647,95.6970144 73.081076,95.6378528 73.0924314,95.5629953 C73.1033812,95.4893452 73.1309584,95.39034 73.1731353,95.265175 L75.3087484,89.1405413 C75.3282146,89.0797698 75.3545752,89.0310722 75.3837747,88.9940459 C75.4105408,88.9562147 75.4567732,88.9288474 75.5184164,88.9091269 C75.5824929,88.8890039 75.6688745,88.8761252 75.7808056,88.8708932 C75.8898979,88.8652587 76.0363006,88.8636489 76.219608,88.8636489 C76.4292761,88.8636489 76.5971727,88.8652587 76.7216758,88.8708932 C76.8482066,88.8761252 76.9451325,88.8890039 77.0148866,88.9091269 C77.0834242,88.9288474 77.133712,88.9578245 77.1645337,88.9964607 C77.1937331,89.0367066 77.2204992,89.0894289 77.2411821,89.1562372 L79.3836895,95.2764439 Z M71.2102855,90.9310851 C71.2102855,90.7036953 71.1595921,90.5105146 71.0549608,90.3555675 C70.9511407,90.1990106 70.7808107,90.0883342 70.5447821,90.0247455 C70.4738113,90.0066348 70.3935129,89.9941586 70.3018591,89.9828897 C70.2106109,89.9720233 70.0848912,89.9663889 69.9230778,89.9663889 L69.2912348,89.9663889 L69.2912348,91.9215387 L70.0094594,91.9215387 C70.2106109,91.9215387 70.3841853,91.8977936 70.5338323,91.848291 C70.6859126,91.8012032 70.8104157,91.73359 70.9109915,91.6462562 C71.0115672,91.5605323 71.0865935,91.4550878 71.1356648,91.3351548 C71.1851416,91.2148193 71.2102855,91.0803977 71.2102855,90.9310851 Z M73.0311937,95.6181323 C73.0311937,95.6559635 73.0242994,95.6889652 73.0101052,95.7163325 C72.9946944,95.7441022 72.9622506,95.7658351 72.9095295,95.7839458 C72.8547805,95.8004466 72.7777265,95.8133253 72.6730953,95.8201671 C72.5696807,95.8274114 72.4285501,95.831436 72.2509203,95.831436 C72.1012733,95.831436 71.9824479,95.8274114 71.8924164,95.8201671 C71.8027904,95.8133253 71.731414,95.8004466 71.6807206,95.7803236 C71.629216,95.7606031 71.5927168,95.736858 71.5708172,95.7054661 C71.5509454,95.6748791 71.5326957,95.6378528 71.5176905,95.5963995 L70.8927418,94.0509537 C70.81731,93.8762861 70.744717,93.7197293 70.6733406,93.5845028 C70.6019643,93.4488738 70.5212603,93.3353801 70.4332565,93.2444242 C70.3460638,93.1538707 70.2430547,93.0862575 70.1282848,93.0391697 C70.0151371,92.9936917 69.8813064,92.9699466 69.7316594,92.9699466 L69.2912348,92.9699466 L69.2912348,95.6072659 C69.2912348,95.6418774 69.2798795,95.6748791 69.2563577,95.7014415 C69.2324304,95.7312235 69.1934979,95.7549687 69.1407767,95.7730793 C69.08765,95.7895802 69.0162736,95.8036663 68.9266476,95.8145327 C68.8386438,95.8258016 68.7238739,95.831436 68.5867988,95.831436 C68.451346,95.831436 68.3381982,95.8258016 68.24695,95.8145327 C68.1552963,95.8036663 68.0839199,95.7895802 68.0307932,95.7730793 C67.9776665,95.7549687 67.9399506,95.7312235 67.9192677,95.7038563 C67.8977736,95.6748791 67.8868239,95.6418774 67.8868239,95.6072659 L67.8868239,89.3385515 C67.8868239,89.1819946 67.926162,89.0689034 68.0072715,88.9996803 C68.0879754,88.9304572 68.1861179,88.8958457 68.3033211,88.8958457 L70.0990854,88.8958457 C70.2803651,88.8958457 70.4316343,88.8998703 70.5488375,88.9067121 C70.6652297,88.9147613 70.7739164,88.923213 70.8704367,88.932872 C71.1486423,88.9727155 71.3988651,89.0399263 71.6223217,89.1365167 C71.8449673,89.2306923 72.0355746,89.3566622 72.1908993,89.5112068 C72.346224,89.6661538 72.4650494,89.8476632 72.5473756,90.0593571 C72.6297017,90.2706485 72.6694453,90.5129293 72.6694453,90.7870045 C72.6694453,91.016809 72.6406515,91.2281004 72.5822526,91.4168541 C72.521015,91.608425 72.43585,91.7774581 72.3206745,91.9267707 C72.2067157,92.0760833 72.0663962,92.2052729 71.8976885,92.3143395 C71.7297918,92.4254184 71.5383734,92.5123498 71.3234332,92.5815729 C71.4280645,92.6310754 71.5245848,92.6910419 71.6166441,92.7626798 C71.7078923,92.8331103 71.7942739,92.920444 71.8741667,93.0226688 C71.9548707,93.1248936 72.0315192,93.2387898 72.1028955,93.3699917 C72.1742719,93.4999862 72.244026,93.646884 72.3113469,93.8110877 L72.8981741,95.1742191 C72.9513008,95.3086407 72.9878001,95.4068409 73.0044276,95.4704296 C73.0226772,95.5324084 73.0311937,95.5819109 73.0311937,95.6181323 Z M66.7310135,93.2263135 C66.7310135,93.6484939 66.6685592,94.0272086 66.542434,94.3604453 C66.4183364,94.6952919 66.235029,94.9774163 65.992106,95.2088307 C65.7487775,95.4398426 65.4486724,95.6165225 65.0921962,95.736858 C64.7340977,95.8588033 64.3249003,95.9183673 63.8597373,95.9183673 C63.4249904,95.9183673 63.0336371,95.8636328 62.6881107,95.7565785 C62.3405565,95.6471094 62.0481567,95.4837107 61.8080726,95.2627603 C61.5692052,95.0430172 61.3858977,94.7677347 61.260178,94.4385225 C61.1340527,94.1089079 61.0699762,93.7253637 61.0699762,93.2842677 L61.0699762,89.0870141 C61.0699762,89.0524026 61.0813315,89.0202058 61.10242,88.9908262 C61.1231029,88.9634589 61.1612244,88.9397138 61.2159733,88.9220056 C61.2711278,88.9038949 61.3441263,88.8902113 61.4337523,88.8793448 C61.5213506,88.8692833 61.636526,88.8636489 61.7756288,88.8636489 C61.9090539,88.8636489 62.0222017,88.8692833 62.1102055,88.8793448 C62.1994259,88.8902113 62.2708023,88.9038949 62.323929,88.9220056 C62.3770557,88.9397138 62.4159883,88.9634589 62.4395101,88.9908262 C62.4634374,89.0202058 62.4743871,89.0524026 62.4743871,89.0870141 L62.4743871,93.1643347 C62.4743871,93.4392148 62.5084531,93.6758611 62.5765851,93.877896 C62.643906,94.078321 62.7412374,94.2457443 62.8689848,94.3769462 C62.9955157,94.5073432 63.1467849,94.6079581 63.3244147,94.6735591 C63.5016389,94.7387576 63.6991405,94.7717593 63.9169195,94.7717593 C64.1379429,94.7717593 64.3374723,94.7371477 64.5110466,94.6703394 C64.6866487,94.6027261 64.8346735,94.5045259 64.9567433,94.3745314 C65.078002,94.2441344 65.1729001,94.0839554 65.2385988,93.8943968 C65.304703,93.7032284 65.3371468,93.4863026 65.3371468,93.2444242 L65.3371468,89.0870141 C65.3371468,89.0524026 65.3480966,89.0202058 65.3704017,88.9908262 C65.3906791,88.9634589 65.4288006,88.9397138 65.4819273,88.9220056 C65.535054,88.9038949 65.6080526,88.8902113 65.6997063,88.8793448 C65.7909545,88.8692833 65.9041022,88.8636489 66.0395551,88.8636489 C66.1750079,88.8636489 66.2865335,88.8692833 66.3737262,88.8793448 C66.46173,88.8902113 66.5331064,88.9038949 66.5862331,88.9220056 C66.6393598,88.9397138 66.6778868,88.9634589 66.6977586,88.9908262 C66.7200638,89.0202058 66.7310135,89.0524026 66.7310135,89.0870141 L66.7310135,93.2263135 Z M60.3659458,93.7269735 C60.3659458,94.0907972 60.2978138,94.4075331 60.1623609,94.6828157 C60.0252859,94.9556834 59.842384,95.1826708 59.6104108,95.3665949 C59.3764099,95.5489092 59.1055042,95.6873554 58.7952604,95.7803236 C58.4837999,95.8728894 58.151251,95.9183673 57.7963969,95.9183673 C57.5571239,95.9183673 57.3361005,95.8986468 57.1292713,95.8588033 C56.9244698,95.8185573 56.7435956,95.7706646 56.5862432,95.7147227 C56.4292963,95.6599881 56.2970879,95.6016315 56.1916455,95.5396526 C56.0853921,95.4784787 56.0103658,95.4233418 55.9625112,95.3778638 C55.9166843,95.3303735 55.8842405,95.2627603 55.8635576,95.175829 C55.8436858,95.0884952 55.8351693,94.96494 55.8351693,94.8007364 C55.8351693,94.6900599 55.8384137,94.5987015 55.845308,94.523844 C55.8534189,94.449389 55.8635576,94.3894224 55.8801851,94.3423346 C55.8968125,94.2968567 55.9191176,94.263855 55.9442616,94.2441344 C55.9722443,94.223609 56.0030659,94.2151573 56.0395652,94.2151573 C56.0886365,94.2151573 56.1600128,94.2441344 56.2516665,94.304101 C56.3429147,94.3620552 56.460118,94.4280586 56.6028707,94.4988915 C56.7452178,94.5697244 56.91717,94.6357279 57.1166993,94.6936821 C57.3137954,94.7536486 57.5445519,94.7826257 57.8057245,94.7826257 C57.9776766,94.7826257 58.1313791,94.7629052 58.266832,94.7230616 C58.403907,94.6804009 58.518677,94.624459 58.6139806,94.5500039 C58.7088788,94.4751464 58.7802551,94.3841905 58.8317596,94.2747214 C58.8808309,94.1656548 58.9067859,94.0437094 58.9067859,93.9092879 C58.9067859,93.7519261 58.8642034,93.6179069 58.7786329,93.506828 C58.6930624,93.3937368 58.5811313,93.2955366 58.4420285,93.2082028 C58.3049535,93.120869 58.1480066,93.0391697 57.971999,92.9622999 C57.7988302,92.8858325 57.6171449,92.805743 57.4314042,92.720019 C57.2444468,92.6351 57.0635726,92.5385097 56.8895927,92.4290406 C56.7143962,92.3215838 56.5566383,92.1923942 56.4195632,92.0414718 C56.2812715,91.8901469 56.1693404,91.7122596 56.0837699,91.5049928 C55.9973883,91.2989334 55.9556169,91.0514206 55.9556169,90.7636618 C55.9556169,90.4340472 56.0172601,90.1426663 56.140141,89.8919338 C56.2630219,89.6428111 56.4292963,89.4351419 56.6373422,89.2693284 C56.8474158,89.103515 57.0931776,88.9799598 57.3766553,88.8982605 C57.6593219,88.8157562 57.9610492,88.7755102 58.279404,88.7755102 C58.4420285,88.7755102 58.6066808,88.7887914 58.7713331,88.8141463 C58.9359853,88.8378915 59.0888767,88.8721006 59.2316295,88.9147613 C59.3747877,88.9578245 59.500913,89.0053148 59.6124385,89.0576345 C59.7219364,89.1127715 59.7949349,89.1562372 59.8318397,89.1928611 C59.8659057,89.2274726 59.889833,89.2580595 59.9032161,89.2818047 C59.9157881,89.3079646 59.9271434,89.3401614 59.9356599,89.3824196 C59.945393,89.4226656 59.9506651,89.4729731 59.9539095,89.5365618 C59.957965,89.5985406 59.9595872,89.6750079 59.9595872,89.7683786 C59.9595872,89.8697985 59.957965,89.9571323 59.9522873,90.0287701 C59.9470152,90.0992006 59.9372821,90.1575573 59.9247101,90.2046451 C59.9121381,90.250123 59.8938885,90.2847346 59.8715834,90.30526 C59.8476561,90.3265904 59.8168345,90.3374568 59.7766853,90.3374568 C59.7385638,90.3374568 59.6761095,90.3125043 59.590539,90.2630018 C59.5041574,90.2139017 59.3979039,90.1591671 59.2742119,90.0992006 C59.1476811,90.0412464 59.0033062,89.9885241 58.8386539,89.9406314 C58.6740017,89.8919338 58.4951552,89.8681887 58.2976536,89.8681887 C58.1439511,89.8681887 58.0101204,89.8862993 57.8953505,89.9249355 C57.7822028,89.9611569 57.6868991,90.0134767 57.6102506,90.0790776 C57.5331966,90.145081 57.4747978,90.2227558 57.4382985,90.3153215 C57.3993659,90.4090947 57.3819274,90.5072949 57.3819274,90.6087148 C57.3819274,90.7620519 57.4232932,90.8948637 57.5080527,91.0055401 C57.592001,91.1190338 57.7051487,91.2188439 57.8462793,91.3057752 C57.9865987,91.3914991 58.1480066,91.4731985 58.326853,91.5504708 C58.5044828,91.6265357 58.6873847,91.708235 58.873531,91.7923491 C59.0596773,91.8772681 59.2425792,91.974261 59.420209,92.0833276 C59.5990555,92.1923942 59.7584356,92.3215838 59.8991606,92.4733112 C60.038669,92.6242336 60.1518167,92.8001085 60.2373872,93.006168 C60.3237688,93.2098127 60.3659458,93.4500812 60.3659458,93.7269735 Z M55.097884,95.3070309 C55.097884,95.3887302 55.0824732,95.4619779 55.055707,95.5271764 C55.0265076,95.590765 54.987575,95.6434873 54.9385038,95.6873554 C54.8910547,95.7292112 54.8338725,95.7606031 54.7681739,95.7803236 C54.700853,95.8004466 54.6351543,95.8093007 54.5670223,95.8093007 L53.9660009,95.8093007 C53.8398757,95.8093007 53.732,95.7968245 53.6403463,95.7730793 C53.5507203,95.7473219 53.466772,95.7014415 53.3901235,95.636243 C53.3106362,95.5710445 53.2380432,95.481296 53.1666668,95.3690097 C53.0952905,95.2575283 53.0145865,95.1118378 52.9257716,94.9335481 L51.2046281,91.7066252 C51.1040523,91.5134445 51.0034766,91.3057752 50.8996564,91.0844223 C50.7950251,90.861862 50.7041825,90.6457411 50.6214508,90.435657 L50.610501,90.435657 C50.6255063,90.6928289 50.6360505,90.9475859 50.6437559,91.202343 C50.6510558,91.4550878 50.6543002,91.7195039 50.6543002,91.989152 L50.6543002,95.6016315 C50.6543002,95.636243 50.6453781,95.6692447 50.6255063,95.6982218 C50.6048234,95.7259915 50.5703518,95.7493342 50.5229028,95.7690547 C50.4754537,95.7895802 50.409755,95.8036663 50.3270234,95.8145327 C50.2446972,95.8258016 50.1388493,95.831436 50.0111019,95.831436 C49.884571,95.831436 49.7807509,95.8258016 49.6984248,95.8145327 C49.6160986,95.8036663 49.5520221,95.7895802 49.5061952,95.7690547 C49.4587462,95.7509441 49.4258968,95.7259915 49.4092694,95.6982218 C49.3910198,95.6692447 49.3816922,95.636243 49.3816922,95.6016315 L49.3816922,89.3981156 C49.3816922,89.2306923 49.431169,89.1059297 49.5301225,89.0218156 C49.6266428,88.9385064 49.747496,88.8958457 49.8922764,88.8958457 L50.6470003,88.8958457 C50.7824532,88.8958457 50.8972231,88.9067121 50.9909046,88.9304572 C51.0841805,88.9542024 51.1665066,88.9924361 51.2395052,89.0451583 C51.3125037,89.0978805 51.3818524,89.1727381 51.4463344,89.2677186 C51.5104109,89.3602843 51.5761096,89.4782051 51.6434305,89.6166513 L52.9914703,92.1416843 C53.0701465,92.294619 53.146795,92.4455414 53.223849,92.5928417 C53.3004975,92.7405445 53.3751182,92.8882473 53.4444669,93.0351451 C53.5158432,93.1828479 53.5855974,93.3285383 53.6529183,93.4698017 C53.7226724,93.6138823 53.7883711,93.7559507 53.8524476,93.8984214 L53.8581253,93.8984214 C53.8471755,93.6484939 53.8374424,93.3881024 53.8321703,93.1192592 C53.8264926,92.8480013 53.8248704,92.5896221 53.8248704,92.3433166 L53.8248704,89.103515 C53.8248704,89.0689034 53.8358202,89.0367066 53.8581253,89.0073271 C53.8779971,88.9799598 53.9144964,88.9542024 53.9643787,88.932872 C54.0150722,88.9107367 54.0807709,88.8958457 54.163097,88.887394 C54.2454231,88.877735 54.3516766,88.8745153 54.4790185,88.8745153 C54.6018994,88.8745153 54.7040973,88.877735 54.7864235,88.887394 C54.8687496,88.8958457 54.9312039,88.9107367 54.9766253,88.932872 C55.0208299,88.9542024 55.0532737,88.9799598 55.0699012,89.0073271 C55.0881508,89.0367066 55.097884,89.0672936 55.097884,89.103515 L55.097884,95.3070309 Z M48.2279096,95.6072659 C48.2279096,95.6418774 48.2169598,95.6748791 48.193438,95.7038563 C48.1695107,95.7312235 48.1309837,95.7549687 48.077857,95.7730793 C48.0251358,95.7895802 47.9517317,95.8036663 47.8641335,95.8145327 C47.7745075,95.8258016 47.659332,95.831436 47.5202292,95.831436 C47.3851819,95.831436 47.2716286,95.8258016 47.1799749,95.8145327 C47.0887267,95.8036663 47.0153226,95.7895802 46.9626014,95.7730793 C46.9094747,95.7549687 46.8709477,95.7312235 46.8474259,95.7038563 C46.8234986,95.6748791 46.8125489,95.6418774 46.8125489,95.6072659 L46.8125489,89.0870141 C46.8125489,89.0524026 46.8234986,89.0202058 46.8474259,88.9908262 C46.8709477,88.9634589 46.9094747,88.9397138 46.9662514,88.9220056 C47.0210003,88.9038949 47.0923766,88.8902113 47.1820026,88.8793448 C47.2716286,88.8692833 47.3851819,88.8636489 47.5202292,88.8636489 C47.659332,88.8636489 47.7745075,88.8692833 47.8641335,88.8793448 C47.9517317,88.8902113 48.0251358,88.9038949 48.077857,88.9220056 C48.1309837,88.9397138 48.1695107,88.9634589 48.193438,88.9908262 C48.2169598,89.0202058 48.2279096,89.0524026 48.2279096,89.0870141 L48.2279096,95.6072659 Z M43.8577299,95.2116479 C43.8577299,95.3178973 43.85408,95.4092557 43.8447524,95.481296 C43.8358303,95.5545437 43.8208251,95.6141077 43.8046032,95.661598 C43.7863535,95.7111005 43.764454,95.7457121 43.7368767,95.7658351 C43.7097051,95.7871654 43.6784779,95.7980319 43.6436008,95.7980319 L40.4677585,95.7980319 C40.3505552,95.7980319 40.2520072,95.7638228 40.1713033,95.6945997 C40.0910049,95.6253766 40.0508557,95.5126878 40.0508557,95.3557285 L40.0508557,89.0870141 C40.0508557,89.0524026 40.0618054,89.0202058 40.0857327,88.9908262 C40.1092545,88.9634589 40.1477815,88.9397138 40.2009082,88.9220056 C40.2536294,88.9038949 40.3270335,88.8902113 40.4182817,88.8793448 C40.5095299,88.8692833 40.6230832,88.8636489 40.758536,88.8636489 C40.8972333,88.8636489 41.0128143,88.8692833 41.1020347,88.8793448 C41.1900385,88.8902113 41.2630371,88.9038949 41.3161638,88.9220056 C41.3692905,88.9397138 41.407412,88.9634589 41.4313393,88.9908262 C41.454861,89.0202058 41.4662164,89.0524026 41.4662164,89.0870141 L41.4662164,94.6409598 L43.6436008,94.6409598 C43.6784779,94.6409598 43.7113272,94.6498139 43.7368767,94.6703394 C43.764454,94.6900599 43.7863535,94.7206469 43.8046032,94.7661248 C43.8228528,94.809993 43.8358303,94.8683496 43.8447524,94.9428047 C43.85408,95.0152475 43.8577299,95.104996 43.8577299,95.2116479 Z M36.2545257,90.2086697 L36.2492535,90.2086697 L35.2840505,93.1446142 L37.2294618,93.1446142 L36.2545257,90.2086697 Z M39.4360457,95.2764439 C39.4782226,95.4036212 39.5057998,95.5050411 39.5163441,95.5798986 C39.5276994,95.6543537 39.5126941,95.7111005 39.4745727,95.7493342 C39.4344235,95.7855556 39.3650749,95.8093007 39.2640935,95.8185573 C39.1655455,95.8274114 39.0264427,95.831436 38.8528684,95.831436 C38.6699665,95.831436 38.5276193,95.8298262 38.4270435,95.8241917 C38.32444,95.8185573 38.247386,95.8076909 38.1930426,95.79119 C38.1399159,95.7746892 38.1030111,95.7525539 38.0811115,95.7235768 C38.059212,95.6970144 38.0409623,95.6583783 38.0283904,95.6129003 L37.5729605,94.2260237 L34.9583959,94.2260237 L34.5212157,95.5742642 C34.506616,95.6253766 34.4883664,95.66683 34.4648446,95.6998317 C34.4425395,95.7344432 34.404418,95.7606031 34.3533191,95.7803236 C34.3018145,95.8004466 34.228816,95.8133253 34.1335123,95.8201671 C34.0386142,95.8274114 33.9145167,95.831436 33.7608142,95.831436 C33.5961619,95.831436 33.4684144,95.8258016 33.3751385,95.8145327 C33.2814571,95.8036663 33.2177861,95.7787138 33.182909,95.7384678 C33.1464097,95.6970144 33.1334322,95.6378528 33.144382,95.5629953 C33.1557373,95.4893452 33.182909,95.39034 33.225086,95.265175 L35.360699,89.1405413 C35.3805708,89.0797698 35.4061203,89.0310722 35.4353197,88.9940459 C35.4633025,88.9562147 35.5087238,88.9288474 35.5707726,88.9091269 C35.6348491,88.8890039 35.7208252,88.8761252 35.8323507,88.8708932 C35.9422541,88.8652587 36.0882512,88.8636489 36.2711531,88.8636489 C36.4816322,88.8636489 36.6495289,88.8652587 36.774032,88.8708932 C36.8997517,88.8761252 36.9970831,88.8890039 37.0664317,88.9091269 C37.1361859,88.9288474 37.1852571,88.9578245 37.2164843,88.9964607 C37.2456837,89.0367066 37.2728554,89.0894289 37.2931328,89.1562372 L39.4360457,95.2764439 Z M31.2626417,90.9310851 C31.2626417,90.7036953 31.2115427,90.5105146 31.107317,90.3555675 C31.0030913,90.1990106 30.8331669,90.0883342 30.5971383,90.0247455 C30.5257619,90.0066348 30.4454635,89.9941586 30.3538098,89.9828897 C30.2625616,89.9720233 30.1364363,89.9663889 29.975434,89.9663889 L29.3427799,89.9663889 L29.3427799,91.9215387 L30.06141,91.9215387 C30.2625616,91.9215387 30.4361359,91.8977936 30.5861885,91.848291 C30.7378632,91.8012032 30.8623663,91.73359 30.9625365,91.6462562 C31.0631123,91.5605323 31.1385441,91.4550878 31.1880209,91.3351548 C31.2370922,91.2148193 31.2626417,91.0803977 31.2626417,90.9310851 Z M33.0835499,95.6181323 C33.0835499,95.6559635 33.07625,95.6889652 33.0620559,95.7163325 C33.0470506,95.7441022 33.0146068,95.7658351 32.9614801,95.7839458 C32.9063256,95.8004466 32.8296772,95.8133253 32.7254515,95.8201671 C32.6212257,95.8274114 32.4805008,95.831436 32.302871,95.831436 C32.1528184,95.831436 32.0343985,95.8274114 31.9447725,95.8201671 C31.8551465,95.8133253 31.7837702,95.8004466 31.7326712,95.7803236 C31.6811667,95.7606031 31.6446674,95.736858 31.6227678,95.7054661 C31.602896,95.6748791 31.5846464,95.6378528 31.5696411,95.5963995 L30.9446924,94.0509537 C30.8696662,93.8762861 30.7962621,93.7197293 30.7252913,93.5845028 C30.6539149,93.4488738 30.573211,93.3353801 30.4856127,93.2444242 C30.3980144,93.1538707 30.2954109,93.0862575 30.1802354,93.0391697 C30.0666821,92.9936917 29.933257,92.9699466 29.78361,92.9699466 L29.3427799,92.9699466 L29.3427799,95.6072659 C29.3427799,95.6418774 29.3318301,95.6748791 29.3079028,95.7014415 C29.284381,95.7312235 29.245854,95.7549687 29.1931329,95.7730793 C29.1400061,95.7895802 29.0686298,95.8036663 28.9790038,95.8145327 C28.8914055,95.8258016 28.7762301,95.831436 28.6387495,95.831436 C28.5037021,95.831436 28.3901488,95.8258016 28.2989007,95.8145327 C28.2072469,95.8036663 28.1362761,95.7895802 28.0831494,95.7730793 C28.0300227,95.7549687 27.9919012,95.7312235 27.9716238,95.7038563 C27.9497243,95.6748791 27.9383689,95.6418774 27.9383689,95.6072659 L27.9383689,89.3385515 C27.9383689,89.1819946 27.9789237,89.0689034 28.0592221,88.9996803 C28.139926,88.9304572 28.2384741,88.8958457 28.3556773,88.8958457 L30.151036,88.8958457 C30.3319102,88.8958457 30.483585,88.8998703 30.6007882,88.9067121 C30.7175859,88.9147613 30.825867,88.923213 30.9223873,88.932872 C31.2005929,88.9727155 31.4512213,89.0399263 31.6742724,89.1365167 C31.8969179,89.2306923 32.0871197,89.3566622 32.2428499,89.5112068 C32.3981746,89.6661538 32.517,89.8476632 32.5993262,90.0593571 C32.6816523,90.2706485 32.7218015,90.5129293 32.7218015,90.7870045 C32.7218015,91.016809 32.6926021,91.2281004 32.6337977,91.4168541 C32.5737767,91.608425 32.4878006,91.7774581 32.3726251,91.9267707 C32.2590718,92.0760833 32.1183469,92.2052729 31.9500447,92.3143395 C31.7817425,92.4254184 31.5899185,92.5123498 31.376195,92.5815729 C31.4804207,92.6310754 31.576941,92.6910419 31.6685947,92.7626798 C31.7602484,92.8331103 31.8462245,92.920444 31.9265229,93.0226688 C32.0068213,93.1248936 32.0838753,93.2387898 32.1548461,93.3699917 C32.2262225,93.4999862 32.2955711,93.646884 32.3637031,93.8110877 L32.9505303,95.1742191 C33.0032515,95.3086407 33.0397508,95.4068409 33.0563782,95.4704296 C33.0746278,95.5324084 33.0835499,95.5819109 33.0835499,95.6181323 Z M27.0461645,95.2470643 C27.0461645,95.350899 27.042109,95.435818 27.033187,95.5074559 C27.0238594,95.5766789 27.0112874,95.6322184 26.9930378,95.6748791 C26.9747881,95.7179423 26.9528886,95.7493342 26.9253113,95.7690547 C26.8997618,95.7895802 26.8685347,95.7980319 26.8377131,95.7980319 L23.3597379,95.7980319 C23.2429402,95.7980319 23.1443921,95.7638228 23.0636882,95.6945997 C22.9833898,95.6253766 22.942835,95.5126878 22.942835,95.3557285 L22.942835,89.3385515 C22.942835,89.1819946 22.9833898,89.0689034 23.0636882,88.9996803 C23.1443921,88.9304572 23.2429402,88.8958457 23.3597379,88.8958457 L26.8210856,88.8958457 C26.8523128,88.8958457 26.8815122,88.9055047 26.9070617,88.923213 C26.930989,88.9413237 26.9528886,88.9727155 26.9711382,89.0161812 C26.9873601,89.0616591 27.0019598,89.118406 27.0112874,89.1876291 C27.0202094,89.2580595 27.0238594,89.3453933 27.0238594,89.4532526 C27.0238594,89.5530626 27.0202094,89.6371767 27.0112874,89.7080096 C27.0019598,89.7772327 26.9893878,89.8335771 26.9711382,89.8754329 C26.9528886,89.9193011 26.930989,89.949888 26.9070617,89.9704135 C26.8815122,89.990134 26.8523128,89.9993906 26.8210856,89.9993906 L24.347246,89.9993906 L24.347246,91.6808677 L26.43176,91.6808677 C26.4646094,91.6808677 26.4938088,91.6901243 26.5193583,91.7098449 C26.5469355,91.7303703 26.5688351,91.7593474 26.5870847,91.8012032 C26.6053344,91.8410468 26.6179063,91.8953788 26.6272339,91.9670167 C26.6365615,92.0362398 26.6402115,92.119549 26.6402115,92.2177492 C26.6402115,92.3215838 26.6365615,92.4073078 26.6272339,92.474921 C26.6179063,92.5417293 26.6053344,92.5964639 26.5870847,92.6367099 C26.5688351,92.6785657 26.5469355,92.7075428 26.5193583,92.7240436 C26.4938088,92.7421543 26.4646094,92.7514109 26.43176,92.7514109 L24.347246,92.7514109 L24.347246,94.6952919 L26.8377131,94.6952919 C26.8705624,94.6952919 26.8997618,94.704146 26.9253113,94.7246715 C26.9528886,94.7439895 26.9747881,94.7753814 26.9930378,94.8188471 C27.0112874,94.8611054 27.0238594,94.9170473 27.033187,94.9862704 C27.042109,95.0579082 27.0461645,95.1436322 27.0461645,95.2470643 Z M21.7890524,95.3070309 C21.7890524,95.3887302 21.7744527,95.4619779 21.7468755,95.5271764 C21.7176761,95.590765 21.6791491,95.6434873 21.6296723,95.6873554 C21.5822232,95.7292112 21.5254466,95.7606031 21.4597479,95.7803236 C21.3920215,95.8004466 21.3263228,95.8093007 21.2585963,95.8093007 L20.6571694,95.8093007 C20.5310442,95.8093007 20.4231685,95.7968245 20.3319203,95.7730793 C20.2418888,95.7473219 20.1579405,95.7014415 20.081292,95.636243 C20.0026158,95.5710445 19.9292117,95.481296 19.8582409,95.3690097 C19.7868645,95.2575283 19.7065661,95.1118378 19.6165346,94.9335481 L17.8962021,91.7066252 C17.7956264,91.5134445 17.6950506,91.3057752 17.5908249,91.0844223 C17.4865992,90.861862 17.395351,90.6457411 17.3130249,90.435657 L17.3020751,90.435657 C17.3162692,90.6928289 17.3276246,90.9475859 17.3349244,91.202343 C17.3422243,91.4550878 17.3458742,91.7195039 17.3458742,91.989152 L17.3458742,95.6016315 C17.3458742,95.636243 17.3365466,95.6692447 17.3162692,95.6982218 C17.2963974,95.7259915 17.2619259,95.7493342 17.2140713,95.7690547 C17.1666222,95.7895802 17.1009235,95.8036663 17.0185974,95.8145327 C16.9362713,95.8258016 16.8304234,95.831436 16.7022704,95.831436 C16.5761451,95.831436 16.4719194,95.8258016 16.3895932,95.8145327 C16.3072671,95.8036663 16.2435962,95.7895802 16.1977693,95.7690547 C16.1499147,95.7509441 16.1170653,95.7259915 16.1008434,95.6982218 C16.0825938,95.6692447 16.0732662,95.636243 16.0732662,95.6016315 L16.0732662,89.3981156 C16.0732662,89.2306923 16.122743,89.1059297 16.221291,89.0218156 C16.3182169,88.9385064 16.4386645,88.8958457 16.5834449,88.8958457 L17.3385744,88.8958457 C17.4740272,88.8958457 17.5887972,88.9067121 17.6820731,88.9304572 C17.7757545,88.9542024 17.8576751,88.9924361 17.9310792,89.0451583 C18.0040778,89.0978805 18.0734264,89.1727381 18.1375029,89.2677186 C18.2015794,89.3602843 18.2672781,89.4782051 18.3350045,89.6166513 L19.6822333,92.1416843 C19.761315,92.294619 19.8379635,92.4455414 19.914612,92.5928417 C19.991666,92.7405445 20.0666923,92.8882473 20.1360409,93.0351451 C20.2074173,93.1828479 20.2767659,93.3285383 20.3444923,93.4698017 C20.4138409,93.6138823 20.4795396,93.7559507 20.5436161,93.8984214 L20.5492938,93.8984214 C20.538344,93.6484939 20.5290164,93.3881024 20.5237443,93.1192592 C20.5180666,92.8480013 20.5164444,92.5896221 20.5164444,92.3433166 L20.5164444,89.103515 C20.5164444,89.0689034 20.5273942,89.0367066 20.5492938,89.0073271 C20.5691656,88.9799598 20.6056649,88.9542024 20.6551417,88.932872 C20.7062407,88.9107367 20.7723449,88.8958457 20.854671,88.887394 C20.9369972,88.877735 21.0428451,88.8745153 21.1709981,88.8745153 C21.2934734,88.8745153 21.3956714,88.877735 21.4779975,88.887394 C21.5603237,88.8958457 21.6223724,88.9107367 21.6681993,88.932872 C21.7119984,88.9542024 21.7448478,88.9799598 21.7614752,89.0073271 C21.7797249,89.0367066 21.7890524,89.0672936 21.7890524,89.103515 L21.7890524,95.3070309 Z M15.1806562,95.2470643 C15.1806562,95.350899 15.1770063,95.435818 15.1676787,95.5074559 C15.1587566,95.5766789 15.1457791,95.6322184 15.1275295,95.6748791 C15.1092798,95.7179423 15.0873803,95.7493342 15.059803,95.7690547 C15.0342536,95.7895802 15.0030264,95.7980319 14.9722048,95.7980319 L11.4946351,95.7980319 C11.3774319,95.7980319 11.2788839,95.7638228 11.1981799,95.6945997 C11.1178815,95.6253766 11.0777323,95.5126878 11.0777323,95.3557285 L11.0777323,89.3385515 C11.0777323,89.1819946 11.1178815,89.0689034 11.1981799,88.9996803 C11.2788839,88.9304572 11.3774319,88.8958457 11.4946351,88.8958457 L14.9555773,88.8958457 C14.9868045,88.8958457 15.0160039,88.9055047 15.0415534,88.923213 C15.0654807,88.9413237 15.0873803,88.9727155 15.1056299,89.0161812 C15.1222574,89.0616591 15.1368571,89.118406 15.1457791,89.1876291 C15.1551067,89.2580595 15.1587566,89.3453933 15.1587566,89.4532526 C15.1587566,89.5530626 15.1551067,89.6371767 15.1457791,89.7080096 C15.1368571,89.7772327 15.1238795,89.8335771 15.1056299,89.8754329 C15.0873803,89.9193011 15.0654807,89.949888 15.0415534,89.9704135 C15.0160039,89.990134 14.9868045,89.9993906 14.9555773,89.9993906 L12.4817377,89.9993906 L12.4817377,91.6808677 L14.5662518,91.6808677 C14.5991011,91.6808677 14.6283005,91.6901243 14.6542556,91.7098449 C14.6814272,91.7303703 14.7033268,91.7593474 14.721982,91.8012032 C14.7398261,91.8410468 14.7528036,91.8953788 14.7617256,91.9670167 C14.7710532,92.0362398 14.7747032,92.119549 14.7747032,92.2177492 C14.7747032,92.3215838 14.7710532,92.4073078 14.7617256,92.474921 C14.7528036,92.5417293 14.7398261,92.5964639 14.721982,92.6367099 C14.7033268,92.6785657 14.6814272,92.7075428 14.6542556,92.7240436 C14.6283005,92.7421543 14.5991011,92.7514109 14.5662518,92.7514109 L12.4817377,92.7514109 L12.4817377,94.6952919 L14.9722048,94.6952919 C15.0050541,94.6952919 15.0342536,94.704146 15.059803,94.7246715 C15.0873803,94.7439895 15.1092798,94.7753814 15.1275295,94.8188471 C15.1457791,94.8611054 15.1587566,94.9170473 15.1676787,94.9862704 C15.1770063,95.0579082 15.1806562,95.1436322 15.1806562,95.2470643 Z M10.0058703,89.9704135 C10.0058703,90.0718333 10.0022204,90.1615819 9.99289278,90.2360369 C9.98356519,90.3108945 9.97099322,90.3704585 9.95436577,90.4147291 C9.93814387,90.4594022 9.91989423,90.490794 9.89596693,90.5072949 C9.87244518,90.5254056 9.84486795,90.5338572 9.81404634,90.5338572 C9.76619174,90.5338572 9.691571,90.5016604 9.58896749,90.4380718 C9.48474178,90.3744831 9.34766673,90.3028453 9.1757146,90.2283902 C9.00376247,90.1535327 8.80098872,90.0826997 8.56293235,90.0191111 C8.32528153,89.9555224 8.04950924,89.9225207 7.73480439,89.9225207 C7.40022771,89.9225207 7.0968782,89.9804749 6.82597248,90.0955785 C6.55385012,90.2126943 6.32147141,90.376093 6.12964745,90.5865795 C5.93741794,90.7998832 5.78939311,91.0526279 5.6851674,91.3516556 C5.5809417,91.648671 5.52984272,91.9754683 5.52984272,92.3364748 C5.52984272,92.7308855 5.58296944,93.0794157 5.68719514,93.3812606 C5.79304304,93.6814956 5.94106787,93.933033 6.12964745,94.1366777 C6.31944367,94.3387125 6.54817245,94.4916472 6.81340051,94.5954819 C7.08025075,94.6993165 7.37467822,94.749624 7.69465519,94.749624 C7.85200761,94.749624 8.0073323,94.7315133 8.16062925,94.6969017 C8.31635948,94.6606804 8.4591122,94.6059458 8.59050958,94.5351129 L8.59050958,92.9260785 L7.27978011,92.9260785 C7.21570361,92.9260785 7.16622682,92.8858325 7.12972754,92.805743 C7.09485046,92.7256535 7.07660082,92.5912319 7.07660082,92.3984536 C7.07660082,92.3002534 7.08025075,92.2161393 7.08957834,92.1485261 C7.09850039,92.0817177 7.1131001,92.0265807 7.12972754,91.9867372 C7.14797718,91.9448814 7.16987674,91.9159043 7.1933985,91.8953788 C7.21935354,91.8756583 7.24855296,91.8664017 7.27978011,91.8664017 L9.6197891,91.8664017 C9.67656574,91.8664017 9.72807027,91.8756583 9.77146385,91.8953788 C9.81729072,91.9159043 9.85581773,91.9448814 9.89069481,91.9851274 C9.92354416,92.0237635 9.95071584,92.0708513 9.96734329,92.1251834 C9.98559293,92.1815278 9.99492052,92.2451164 9.99492052,92.3159494 L9.99492052,95.0687746 C9.99492052,95.175829 9.97667088,95.2683947 9.93814387,95.3484842 C9.9016446,95.4289762 9.82459057,95.4925648 9.7077929,95.5380428 C9.59261741,95.5851306 9.44824251,95.6322184 9.27629038,95.6833308 C9.10433824,95.7328334 8.92711399,95.776299 8.74218434,95.8109106 C8.55968797,95.8479369 8.37313613,95.8744992 8.18455655,95.8910001 C7.99800471,95.9091108 7.80983067,95.9183673 7.6196289,95.9183673 C7.06565104,95.9183673 6.57007202,95.8382778 6.13126964,95.6805136 C5.694495,95.521542 5.3230135,95.2921398 5.01966398,94.9919048 C4.71631447,94.6912673 4.48393576,94.3258338 4.32293341,93.892787 C4.16193105,93.4597402 4.08163265,92.9699466 4.08163265,92.4221988 C4.08163265,91.8563402 4.16760872,91.3484359 4.33956085,90.8988883 C4.50948525,90.4469259 4.75281374,90.0645891 5.06711304,89.749463 C5.38181789,89.4351419 5.76019369,89.1944709 6.20629592,89.0270476 C6.65077596,88.8596243 7.14594944,88.7755102 7.69100526,88.7755102 C7.99273259,88.7755102 8.2652605,88.7960357 8.51183337,88.8378915 C8.7571896,88.8793448 8.97253531,88.9288474 9.15746496,88.9888139 C9.33996133,89.0467681 9.49366383,89.1111617 9.61451698,89.17797 C9.73699232,89.2471931 9.82134619,89.3055498 9.86879525,89.3566622 C9.9178665,89.4061648 9.95274358,89.4765952 9.97302095,89.5679536 C9.99492052,89.6568972 10.0058703,89.7921237 10.0058703,89.9704135 L10.0058703,89.9704135 Z" id="Fill-11" fill="#273777"></path>
                    <path d="M95.9183673,95.2558777 C95.9183673,95.3600352 95.91418,95.4452182 95.9053867,95.5170787 C95.8953371,95.586517 95.8823564,95.6422291 95.8635134,95.6850224 C95.8446705,95.7282195 95.822059,95.759709 95.7940039,95.7794908 C95.7672051,95.8000801 95.7353814,95.808558 95.7031391,95.808558 L92.1120929,95.808558 C91.9919168,95.808558 91.8897462,95.7742426 91.8064185,95.7048043 C91.7235095,95.635366 91.6820551,95.5223269 91.6820551,95.3648797 L91.6820551,89.3289979 C91.6820551,89.1719543 91.7235095,89.0585116 91.8064185,88.9890733 C91.8897462,88.919635 91.9919168,88.8849159 92.1120929,88.8849159 L95.6859711,88.8849159 C95.7182134,88.8849159 95.7483621,88.8946049 95.775161,88.9123682 C95.7998662,88.9305352 95.822059,88.9620246 95.8413206,89.0056254 C95.8580699,89.0512448 95.873563,89.108168 95.8823564,89.1776063 C95.892406,89.2482557 95.8953371,89.3358609 95.8953371,89.4440555 C95.8953371,89.5441758 95.892406,89.6285514 95.8823564,89.6996045 C95.873563,89.7690428 95.8593261,89.8255623 95.8413206,89.8675482 C95.822059,89.9115527 95.7998662,89.9422347 95.775161,89.962824 C95.7483621,89.9826058 95.7182134,89.9918912 95.6859711,89.9918912 L93.1321242,89.9918912 L93.1321242,91.6785954 L95.284407,91.6785954 C95.3179056,91.6785954 95.348473,91.6878807 95.3744344,91.7076625 C95.4033269,91.7282518 95.4259384,91.757319 95.4447814,91.7993049 C95.4636243,91.8392723 95.476605,91.8937733 95.4858171,91.9656338 C95.495448,92.0350721 95.4996353,92.1186403 95.4996353,92.2171457 C95.4996353,92.3213031 95.495448,92.4072936 95.4858171,92.475117 C95.476605,92.542133 95.4636243,92.5970377 95.4447814,92.6374088 C95.4259384,92.6793947 95.4033269,92.7084619 95.3744344,92.725014 C95.348473,92.743181 95.3179056,92.7524664 95.284407,92.7524664 L93.1321242,92.7524664 L93.1321242,94.7023901 L95.7031391,94.7023901 C95.7374751,94.7023901 95.7672051,94.7112717 95.7940039,94.731861 C95.822059,94.7512391 95.8446705,94.7827286 95.8635134,94.8263293 C95.8823564,94.868719 95.8953371,94.9248348 95.9053867,94.9942731 C95.91418,95.0661336 95.9183673,95.152124 95.9183673,95.2558777 Z M91.0041279,94.762543 C91.0041279,94.8521668 91.0024529,94.9288719 90.9965907,94.9910434 C90.9907284,95.0532149 90.9810976,95.1077158 90.9697918,95.152124 C90.9605797,95.1969359 90.9450866,95.2356922 90.9262437,95.2687965 C90.9074008,95.2994785 90.8797644,95.3358125 90.8378912,95.3757799 C90.7981117,95.416151 90.7185526,95.4690371 90.6034013,95.5336308 C90.4861563,95.5949949 90.3446249,95.6571664 90.177132,95.7157045 C90.0088017,95.7726277 89.8182787,95.8214767 89.6030504,95.8598293 C89.3878221,95.8985855 89.1541696,95.9183673 88.9029304,95.9183673 C88.4138513,95.9183673 87.972089,95.844892 87.5772247,95.6991523 C87.1831978,95.5534127 86.8469559,95.3341977 86.5714302,95.0439295 C86.2942296,94.7536614 86.0823512,94.3919364 85.9349575,93.9559286 C85.7879826,93.521132 85.7142857,93.0152822 85.7142857,92.438783 C85.7142857,91.8505762 85.795101,91.328578 85.9579878,90.871981 C86.1200371,90.4153839 86.3465711,90.0322623 86.6375899,89.7214049 C86.9277712,89.4109512 87.2769938,89.1776063 87.6852575,89.0165256 C88.0910089,88.8558487 88.5398897,88.7755102 89.0314811,88.7755102 C89.2291226,88.7755102 89.4200645,88.7920624 89.6047253,88.8251666 C89.7902236,88.8558487 89.9598101,88.8982383 90.1168346,88.9511245 C90.2738591,89.0015883 90.4128782,89.0625487 90.5393353,89.1303721 C90.6636987,89.1994067 90.7528886,89.2579447 90.8018803,89.3051789 C90.8508719,89.3540279 90.8847892,89.394399 90.9040509,89.4258885 C90.9228938,89.4581854 90.9379682,89.4985564 90.947599,89.5482129 C90.9580673,89.5994842 90.9681169,89.6576185 90.9735604,89.7246346 C90.9794227,89.792458 90.9810976,89.8744113 90.9810976,89.975339 C90.9810976,90.0811113 90.9777477,90.1727537 90.9697918,90.2474402 C90.9622547,90.3225304 90.949274,90.3822796 90.9321059,90.427899 C90.913263,90.473922 90.8902327,90.5086411 90.8659463,90.5280193 C90.8395662,90.5502234 90.8094175,90.5611236 90.7775938,90.5611236 C90.7227399,90.5611236 90.6532304,90.5304415 90.5682278,90.4682701 C90.4832252,90.4060986 90.3735174,90.3366603 90.2395231,90.2599552 C90.1051101,90.1836539 89.9447357,90.1142156 89.7575625,90.0520441 C89.5729017,89.9894689 89.3518111,89.9587869 89.0934535,89.9587869 C88.8103906,89.9587869 88.5570577,90.0157101 88.334711,90.1267306 C88.1119455,90.2405771 87.9230973,90.3988318 87.7660728,90.6071466 C87.6090483,90.8166726 87.4905471,91.0689919 87.4097318,91.364912 C87.3276604,91.6588135 87.2887183,91.9930862 87.2887183,92.3636928 C87.2887183,92.7690185 87.3318477,93.1214582 87.4185252,93.4189931 C87.5052027,93.7145095 87.6287287,93.9611769 87.7891031,94.1529395 C87.9478025,94.3447022 88.1416755,94.488827 88.3682095,94.5816805 C88.5947436,94.67736 88.8497514,94.7245942 89.1328143,94.7245942 C89.389497,94.7245942 89.6126812,94.695527 89.8011106,94.6369889 C89.9882839,94.5780471 90.1486583,94.512646 90.2826525,94.4432077 C90.4183217,94.3721546 90.5280295,94.3083682 90.614707,94.251445 C90.7013846,94.1945218 90.7675442,94.1654546 90.8165359,94.1654546 C90.8525469,94.1654546 90.8831143,94.1727214 90.9040509,94.1876587 C90.9262437,94.2017886 90.9450866,94.2292409 90.9605797,94.2736491 C90.9735604,94.3152313 90.9852849,94.3753842 90.9924034,94.452493 C90.9999405,94.5304092 91.0041279,94.6329518 91.0041279,94.762543 L91.0041279,94.762543 Z" id="Fill-12" fill="#273777"></path>
                    <polygon id="Fill-13" fill="#273777" points="4.08163265 86.7346939 95.9183673 86.7346939 95.9183673 57.1428571 4.08163265 57.1428571"></polygon>
                    <path d="M83.3726223,74.764326 L83.3726223,78.6801582 L80.3490202,78.6801582 L80.3490202,65.1991706 L82.517174,65.1991706 L82.517174,60.2042721 L71.873291,60.2042721 L71.873291,65.1991706 L73.9663068,65.1991706 L73.9663068,78.6801582 L71.873291,78.6801582 L71.873291,83.6734694 L89.7959184,83.6734694 L89.7959184,74.764326 L83.3726223,74.764326 Z M28.0304582,64.7534952 C28.0304582,59.9756798 23.6965616,60.2058595 23.6965616,60.2058595 L9.18367347,60.2058595 L9.18367347,65.175359 L11.3891953,65.175359 L11.3891953,78.7039699 L9.18367347,78.7039699 L9.18367347,83.6734694 L23.6965616,83.6734694 C28.37762,83.4805947 28.0304582,79.0869413 28.0304582,79.0869413 L28.0304582,64.7534952 Z M17.8145004,78.7039699 L21.6103766,78.7039699 L21.6103766,65.175359 L17.8145004,65.175359 L17.8145004,78.7039699 Z M42.2327491,69.5027365 L38.4075409,69.5027365 L38.4075409,60.2042721 L29.6557699,60.2042721 L29.6557699,65.1991706 L32.0200057,65.1991706 L32.0200057,78.6801582 L29.6557699,78.6801582 L29.6557699,83.6734694 L38.4075409,83.6734694 L38.4075409,74.5325589 L42.2327491,74.5325589 L42.2327491,83.6734694 L50.9801003,83.6734694 L50.9801003,78.6801582 L48.6572506,78.6801582 L48.6572506,65.1991706 L50.9801003,65.1991706 L50.9801003,60.2042721 L42.2327491,60.2042721 L42.2327491,69.5027365 Z M52.1766832,65.1991706 L54.5421245,65.1991706 L54.5421245,78.6801582 L52.0653825,78.6801582 L52.0653825,83.6734694 L63.3232274,83.6734694 L63.3232274,78.6801582 L60.9224271,78.6801582 L60.9224271,74.4555678 L65.8039875,74.4555678 L65.8039875,69.4221737 L60.9224271,69.4221737 L60.9224271,65.1991706 L65.0293025,65.1991706 L65.0293025,67.5021578 L70.0603352,67.5021578 L70.0603352,60.2042721 L52.1766832,60.2042721 L52.1766832,65.1991706 L52.1766832,65.1991706 Z" id="Fill-14" fill="#FFFFFE"></path>
                    <path d="M74.6800142,54.041791 L74.1946275,54.0434688 C74.1962388,54.0153656 74.1962388,53.9876819 74.1962388,53.9587398 C74.1962388,52.7318471 73.2411751,51.736491 72.0617459,51.736491 C70.8831223,51.736491 69.9280586,52.7318471 69.9280586,53.9587398 C69.9280586,53.9901986 69.9280586,54.0203991 69.9296699,54.0505995 L63.1966922,54.063183 C63.1983034,54.0287881 63.1991091,53.9939737 63.1991091,53.9587398 C63.1991091,52.7318471 62.2432397,51.736491 61.0646162,51.736491 C59.8859926,51.736491 58.9301233,52.7318471 58.9301233,53.9587398 C58.9301233,53.9964904 58.9309289,54.033402 58.9333458,54.0711526 L58.5543011,54.0711526 C57.6338791,54.0711526 56.7122486,54.0711526 55.791021,54.0711526 C55.1356483,54.16469 55.0651564,53.6198238 55.1147021,52.9268915 C55.1147021,51.4881763 55.1147021,50.0498804 55.1147021,48.6111651 C55.1578029,47.8158869 55.5960607,47.5352745 56.2425716,47.5252077 C56.881429,47.5252077 57.5202865,47.5252077 58.1599496,47.5252077 C59.2402874,46.0961398 60.321028,44.6674913 61.4013658,43.2388428 C61.594312,42.9758474 61.8420405,42.8584012 62.1344809,42.8571429 C64.3712876,42.8571429 66.6080944,42.8571429 68.8449012,42.8571429 C69.3923206,42.8802126 69.7818384,43.0421205 70.0287613,43.3269274 C71.1465604,44.7362812 72.265568,46.1452155 73.3833672,47.5541498 C76.7452237,47.6489456 78.3737866,48.8896803 78.5703581,51.0766953 C78.5703581,51.8010863 78.5703581,52.5254774 78.5703581,53.249449 C78.5892902,53.7574036 78.3564657,54.0048794 77.922236,54.041791 C76.8418982,54.041791 75.7611576,54.041791 74.6800142,54.041791" id="Fill-15" fill="#FFFFFE"></path>
                    <path d="M75.1349427,53.4280958 L75.3187661,53.4273031 L75.3187661,53.4265104 L78.6017949,53.4265104 C78.7323955,53.4142232 78.8257401,53.3809288 78.8785535,53.3238528 C78.9346422,53.2616241 78.961663,53.1542102 78.9555219,52.9968548 L78.9547031,52.9861531 L78.9547031,50.936173 C78.8584926,50.0106696 78.4404888,49.2861214 77.6663016,48.783139 C76.8507643,48.2528077 75.6385124,47.9551405 73.9939275,47.9119371 L73.84736,47.9083699 L70.3489835,43.8103915 C70.2580954,43.7144721 70.1381393,43.637578 69.9899343,43.5820875 C69.8253529,43.5206515 69.6255627,43.4841863 69.3881071,43.4738809 L62.5678082,43.4746736 L62.5678082,43.4734845 C62.4687319,43.4738809 62.3782531,43.4921135 62.2967813,43.5309569 C62.2161282,43.5690076 62.1416163,43.6292545 62.0761113,43.713283 C61.221271,44.9780716 59.6966421,46.638825 58.681724,47.8853809 L56.5794229,47.8853809 L56.5794229,47.8845882 C56.3243628,47.8885518 56.118022,47.9365115 55.9808709,48.0482854 C55.851908,48.1529247 55.7704361,48.3304945 55.7520128,48.603191 L55.7520128,52.6813513 L55.751194,52.7035476 C55.7286767,52.9861531 55.7303143,53.2307079 55.7966381,53.3718125 C55.8310282,53.4435539 55.9141377,53.4792264 56.0783096,53.4578229 L56.1204785,53.454652 L58.9290054,53.454652 L58.9290054,53.4554447 L59.0006515,53.4554447 C59.0514179,52.870812 59.3167131,52.345237 59.7212065,51.9536322 C60.1715534,51.5176349 60.7934415,51.2481093 61.4804252,51.2481093 C62.1674089,51.2481093 62.789297,51.5176349 63.2396439,51.9536322 C63.6416808,52.3428589 63.9073855,52.8652629 63.9593801,53.4467248 L70.1803082,53.436023 C70.2347592,52.8593175 70.4984168,52.3404807 70.8984067,51.9536322 C71.3487536,51.5176349 71.9706417,51.2481093 72.6584442,51.2481093 C73.3454279,51.2481093 73.967316,51.5176349 74.4176629,51.9536322 C74.814787,52.3388953 75.078854,52.8545612 75.1349427,53.4280958 Z M75.3187661,54.042852 L74.498316,54.0436447 C74.50241,53.9152237 74.5077323,53.78601 74.5093699,53.6571926 L74.5085511,53.6571926 C74.5085511,53.1625338 74.301801,52.7146457 73.9664972,52.3900259 C73.6316029,52.0658024 73.1693833,51.8652436 72.6584442,51.8652436 C72.1475052,51.8652436 71.6844668,52.0658024 71.3495724,52.3900259 C71.0142687,52.7146457 70.8071091,53.1625338 70.8071091,53.6571926 L70.807928,53.7309158 L70.821029,54.0499865 L63.3141558,54.0630664 C63.3202969,53.9283036 63.3309415,53.7919554 63.3325791,53.6571926 L63.3309415,53.6571926 C63.3309415,53.1625338 63.1237819,52.7146457 62.7884782,52.3900259 C62.4544027,52.0658024 61.9913642,51.8652436 61.4804252,51.8652436 C60.9694862,51.8652436 60.5072665,52.0658024 60.1723722,52.3900259 C59.8370685,52.7146457 59.6303183,53.1625338 59.6303183,53.6571926 L59.6294995,53.701585 L59.6487416,54.0694082 L58.9290054,54.0705973 L58.9290054,54.07139 L56.1335795,54.07139 C55.6496613,54.127277 55.3720838,53.9508962 55.2193753,53.6294473 C55.0986004,53.3757761 55.0867277,53.0412473 55.1145673,52.6750096 L55.1145673,48.603191 L55.1153861,48.5861475 C55.1428163,48.1172522 55.30576,47.7918397 55.5718741,47.5754265 C55.831847,47.3645623 56.1749295,47.2749847 56.5757382,47.2694356 L56.5794229,47.2682465 L58.3738505,47.2682465 L61.5725416,43.3359472 C61.7010952,43.1742318 61.8505284,43.0553235 62.0179756,42.9760512 C62.1850134,42.896779 62.3688368,42.8591247 62.5669894,42.8583319 L62.5678082,42.8571429 L69.3881071,42.8571429 L69.3999798,42.8583319 C69.7139944,42.8710155 69.986659,42.9217497 70.2187924,43.0081565 C70.4664831,43.100905 70.6687298,43.233686 70.8279889,43.4037249 L74.1552335,47.3015409 C75.8538601,47.3621842 77.1299794,47.6931457 78.0208474,48.2718331 C78.9714887,48.8897602 79.4799713,49.7760238 79.5896922,50.9052568 L79.5917392,50.9330021 L79.5917392,52.9861531 L79.5909204,52.9861531 C79.601565,53.3036384 79.5192743,53.5497787 79.3542836,53.7317085 C79.1839706,53.9176019 78.9432397,54.0182776 78.6402791,54.042852 L78.6140771,54.0436447 L75.3187661,54.0436447 L75.3187661,54.042852 L75.3187661,54.042852 Z" id="Fill-16" fill="#D8232A"></path>
                    <path d="M72.449432,52.0408163 C73.57593,52.0408163 74.4897959,52.9543311 74.4897959,54.080954 C74.4897959,55.2089343 73.57593,56.122449 72.449432,56.122449 C71.3220291,56.122449 70.4081633,55.2089343 70.4081633,54.080954 C70.4081633,52.9543311 71.3220291,52.0408163 72.449432,52.0408163" id="Fill-17" fill="#FFFFFE"></path>
                </g>
            </g>
        </g>
    </g>
</svg>