<?xml version="1.0" encoding="UTF-8"?>
<svg width="65px" height="22px" viewBox="0 0 65 22" version="1.1" xmlns="http://www.w3.org/2000/svg" xmlns:xlink="http://www.w3.org/1999/xlink">
    <!-- Generator: Sketch 46 (44423) - http://www.bohemiancoding.com/sketch -->
    <title>logo</title>
    <desc>Created with Sketch.</desc>
    <defs></defs>
    <g id="Page-1" stroke="none" stroke-width="1" fill="none" fill-rule="evenodd">
        <g id="logo" fill="#FFFFFF">
            <path d="M25.7816429,11.2256687 C25.4426759,21.0102626 16.3387851,21.7021896 10.9225099,21.6368728 L8.34967118,17.9008978 C8.73253836,17.9102288 10.2992712,17.9274552 10.6619875,17.9274552 C18.2963015,18.2526034 21.4016998,15.6212712 21.5593087,11.0935997 C21.7644161,5.17848541 16.0386806,4.42124168 15.1808278,4.32506096 L4.5512257,4.32506096 L4.5512257,21.7301825 L0,21.7301825 L0,2.45312575 C0,1.19990532 1.01906002,0.18426563 2.27561285,0.18426563 L15.3082103,0.18426563 C15.372981,0.18426563 15.4384715,0.186418929 15.5032422,0.192161062 C19.18582,0.508696118 26.0731113,2.82134 25.7816429,11.2256687 Z" id="Combined-Shape"></path>
            <path d="M45.6851013,13.913816 L53.1242663,13.913816 C51.8061194,16.5850117 48.7561107,18.4218951 45.2727866,18.4218951 C40.5609188,18.4218951 36.7289823,15.0818532 36.7289823,10.9766177 C36.7289823,6.87208041 40.5609188,3.53203848 45.2727866,3.53203848 C48.3479962,3.53203848 51.150196,4.89346861 52.6566497,7.13878108 L56.5578887,7.13878108 C54.7861255,2.95325613 50.2709647,0 45.2727866,0 C38.6085492,0 33.1875561,4.92418806 33.1875561,10.9766177 C33.1875561,17.0297455 38.6085492,21.9539336 45.2727866,21.9539336 C51.3301024,21.9539336 56.482986,17.8452073 57.2579136,12.3959959 L57.5435238,10.3817775 L43.907738,10.3817775 L45.6851013,13.913816 L45.6851013,13.913816 Z" id="Path"></path>
            <rect id="Rectangle" x="27.2910559" y="0.0460664074" width="4.54083159" height="21.9539336"></rect>
            <rect id="Rectangle" x="59.5375411" y="0.0460664074" width="4.54083159" height="21.9539336"></rect>
        </g>
    </g>
</svg>